<svg xmlns="http://www.w3.org/2000/svg" xmlns:xlink="http://www.w3.org/1999/xlink" width="610" height="768" viewBox="0 0 610 768">
  <defs>
    <clipPath id="clip-path">
      <rect width="533" height="724" fill="none"/>
    </clipPath>
    <clipPath id="clip-Zeichenfläche_1">
      <rect width="610" height="768"/>
    </clipPath>
  </defs>
  <g id="Zeichenfläche_1" data-name="Zeichenfläche – 1" clip-path="url(#clip-Zeichenfläche_1)">
    <rect width="610" height="768" fill="rgba(0,0,0,0.8)"/>
    <g id="Wiederholungsraster_2" data-name="Wiederholungsraster 2" transform="translate(39 22)" clip-path="url(#clip-path)">
      <g transform="translate(-46 -87)">
        <path id="Icon_material-language" data-name="Icon material-language" d="M8,3a5,5,0,1,0,5,5A5,5,0,0,0,8,3ZM11.46,6H9.985A7.825,7.825,0,0,0,9.3,4.22,4.015,4.015,0,0,1,11.46,6ZM8,4.02A7.043,7.043,0,0,1,8.955,6H7.045A7.043,7.043,0,0,1,8,4.02ZM4.13,9a3.911,3.911,0,0,1,0-2H5.82a8.258,8.258,0,0,0-.07,1,8.258,8.258,0,0,0,.07,1Zm.41,1H6.015a7.825,7.825,0,0,0,.69,1.78A3.993,3.993,0,0,1,4.54,10ZM6.015,6H4.54A3.993,3.993,0,0,1,6.7,4.22,7.825,7.825,0,0,0,6.015,6ZM8,11.98A7.043,7.043,0,0,1,7.045,10h1.91A7.043,7.043,0,0,1,8,11.98ZM9.17,9H6.83a7.356,7.356,0,0,1-.08-1,7.292,7.292,0,0,1,.08-1H9.17a7.292,7.292,0,0,1,.08,1A7.356,7.356,0,0,1,9.17,9ZM9.3,11.78A7.825,7.825,0,0,0,9.985,10H11.46A4.015,4.015,0,0,1,9.3,11.78ZM10.18,9a8.257,8.257,0,0,0,.07-1,8.258,8.258,0,0,0-.07-1h1.69a3.911,3.911,0,0,1,0,2Z" transform="translate(43 84)" fill="rgba(255,255,255,0.7)"/>
      </g>
      <g transform="translate(41 -87)">
        <path id="Icon_material-language-2" data-name="Icon material-language" d="M8,3a5,5,0,1,0,5,5A5,5,0,0,0,8,3ZM11.46,6H9.985A7.825,7.825,0,0,0,9.3,4.22,4.015,4.015,0,0,1,11.46,6ZM8,4.02A7.043,7.043,0,0,1,8.955,6H7.045A7.043,7.043,0,0,1,8,4.02ZM4.13,9a3.911,3.911,0,0,1,0-2H5.82a8.258,8.258,0,0,0-.07,1,8.258,8.258,0,0,0,.07,1Zm.41,1H6.015a7.825,7.825,0,0,0,.69,1.78A3.993,3.993,0,0,1,4.54,10ZM6.015,6H4.54A3.993,3.993,0,0,1,6.7,4.22,7.825,7.825,0,0,0,6.015,6ZM8,11.98A7.043,7.043,0,0,1,7.045,10h1.91A7.043,7.043,0,0,1,8,11.98ZM9.17,9H6.83a7.356,7.356,0,0,1-.08-1,7.292,7.292,0,0,1,.08-1H9.17a7.292,7.292,0,0,1,.08,1A7.356,7.356,0,0,1,9.17,9ZM9.3,11.78A7.825,7.825,0,0,0,9.985,10H11.46A4.015,4.015,0,0,1,9.3,11.78ZM10.18,9a8.257,8.257,0,0,0,.07-1,8.258,8.258,0,0,0-.07-1h1.69a3.911,3.911,0,0,1,0,2Z" transform="translate(43 84)" fill="rgba(255,255,255,0.7)"/>
      </g>
      <g transform="translate(128 -87)">
        <path id="Icon_material-language-3" data-name="Icon material-language" d="M8,3a5,5,0,1,0,5,5A5,5,0,0,0,8,3ZM11.46,6H9.985A7.825,7.825,0,0,0,9.3,4.22,4.015,4.015,0,0,1,11.46,6ZM8,4.02A7.043,7.043,0,0,1,8.955,6H7.045A7.043,7.043,0,0,1,8,4.02ZM4.13,9a3.911,3.911,0,0,1,0-2H5.82a8.258,8.258,0,0,0-.07,1,8.258,8.258,0,0,0,.07,1Zm.41,1H6.015a7.825,7.825,0,0,0,.69,1.78A3.993,3.993,0,0,1,4.54,10ZM6.015,6H4.54A3.993,3.993,0,0,1,6.7,4.22,7.825,7.825,0,0,0,6.015,6ZM8,11.98A7.043,7.043,0,0,1,7.045,10h1.91A7.043,7.043,0,0,1,8,11.98ZM9.17,9H6.83a7.356,7.356,0,0,1-.08-1,7.292,7.292,0,0,1,.08-1H9.17a7.292,7.292,0,0,1,.08,1A7.356,7.356,0,0,1,9.17,9ZM9.3,11.78A7.825,7.825,0,0,0,9.985,10H11.46A4.015,4.015,0,0,1,9.3,11.78ZM10.18,9a8.257,8.257,0,0,0,.07-1,8.258,8.258,0,0,0-.07-1h1.69a3.911,3.911,0,0,1,0,2Z" transform="translate(43 84)" fill="rgba(255,255,255,0.7)"/>
      </g>
      <g transform="translate(215 -87)">
        <path id="Icon_material-language-4" data-name="Icon material-language" d="M8,3a5,5,0,1,0,5,5A5,5,0,0,0,8,3ZM11.46,6H9.985A7.825,7.825,0,0,0,9.3,4.22,4.015,4.015,0,0,1,11.46,6ZM8,4.02A7.043,7.043,0,0,1,8.955,6H7.045A7.043,7.043,0,0,1,8,4.02ZM4.13,9a3.911,3.911,0,0,1,0-2H5.82a8.258,8.258,0,0,0-.07,1,8.258,8.258,0,0,0,.07,1Zm.41,1H6.015a7.825,7.825,0,0,0,.69,1.78A3.993,3.993,0,0,1,4.54,10ZM6.015,6H4.54A3.993,3.993,0,0,1,6.7,4.22,7.825,7.825,0,0,0,6.015,6ZM8,11.98A7.043,7.043,0,0,1,7.045,10h1.91A7.043,7.043,0,0,1,8,11.98ZM9.17,9H6.83a7.356,7.356,0,0,1-.08-1,7.292,7.292,0,0,1,.08-1H9.17a7.292,7.292,0,0,1,.08,1A7.356,7.356,0,0,1,9.17,9ZM9.3,11.78A7.825,7.825,0,0,0,9.985,10H11.46A4.015,4.015,0,0,1,9.3,11.78ZM10.18,9a8.257,8.257,0,0,0,.07-1,8.258,8.258,0,0,0-.07-1h1.69a3.911,3.911,0,0,1,0,2Z" transform="translate(43 84)" fill="rgba(255,255,255,0.7)"/>
      </g>
      <g transform="translate(302 -87)">
        <path id="Icon_material-language-5" data-name="Icon material-language" d="M8,3a5,5,0,1,0,5,5A5,5,0,0,0,8,3ZM11.46,6H9.985A7.825,7.825,0,0,0,9.3,4.22,4.015,4.015,0,0,1,11.46,6ZM8,4.02A7.043,7.043,0,0,1,8.955,6H7.045A7.043,7.043,0,0,1,8,4.02ZM4.13,9a3.911,3.911,0,0,1,0-2H5.82a8.258,8.258,0,0,0-.07,1,8.258,8.258,0,0,0,.07,1Zm.41,1H6.015a7.825,7.825,0,0,0,.69,1.78A3.993,3.993,0,0,1,4.54,10ZM6.015,6H4.54A3.993,3.993,0,0,1,6.7,4.22,7.825,7.825,0,0,0,6.015,6ZM8,11.98A7.043,7.043,0,0,1,7.045,10h1.91A7.043,7.043,0,0,1,8,11.98ZM9.17,9H6.83a7.356,7.356,0,0,1-.08-1,7.292,7.292,0,0,1,.08-1H9.17a7.292,7.292,0,0,1,.08,1A7.356,7.356,0,0,1,9.17,9ZM9.3,11.78A7.825,7.825,0,0,0,9.985,10H11.46A4.015,4.015,0,0,1,9.3,11.78ZM10.18,9a8.257,8.257,0,0,0,.07-1,8.258,8.258,0,0,0-.07-1h1.69a3.911,3.911,0,0,1,0,2Z" transform="translate(43 84)" fill="rgba(255,255,255,0.7)"/>
      </g>
      <g transform="translate(389 -87)">
        <path id="Icon_material-language-6" data-name="Icon material-language" d="M8,3a5,5,0,1,0,5,5A5,5,0,0,0,8,3ZM11.46,6H9.985A7.825,7.825,0,0,0,9.3,4.22,4.015,4.015,0,0,1,11.46,6ZM8,4.02A7.043,7.043,0,0,1,8.955,6H7.045A7.043,7.043,0,0,1,8,4.02ZM4.13,9a3.911,3.911,0,0,1,0-2H5.82a8.258,8.258,0,0,0-.07,1,8.258,8.258,0,0,0,.07,1Zm.41,1H6.015a7.825,7.825,0,0,0,.69,1.78A3.993,3.993,0,0,1,4.54,10ZM6.015,6H4.54A3.993,3.993,0,0,1,6.7,4.22,7.825,7.825,0,0,0,6.015,6ZM8,11.98A7.043,7.043,0,0,1,7.045,10h1.91A7.043,7.043,0,0,1,8,11.98ZM9.17,9H6.83a7.356,7.356,0,0,1-.08-1,7.292,7.292,0,0,1,.08-1H9.17a7.292,7.292,0,0,1,.08,1A7.356,7.356,0,0,1,9.17,9ZM9.3,11.78A7.825,7.825,0,0,0,9.985,10H11.46A4.015,4.015,0,0,1,9.3,11.78ZM10.18,9a8.257,8.257,0,0,0,.07-1,8.258,8.258,0,0,0-.07-1h1.69a3.911,3.911,0,0,1,0,2Z" transform="translate(43 84)" fill="rgba(255,255,255,0.7)"/>
      </g>
      <g transform="translate(476 -87)">
        <path id="Icon_material-language-7" data-name="Icon material-language" d="M8,3a5,5,0,1,0,5,5A5,5,0,0,0,8,3ZM11.46,6H9.985A7.825,7.825,0,0,0,9.3,4.22,4.015,4.015,0,0,1,11.46,6ZM8,4.02A7.043,7.043,0,0,1,8.955,6H7.045A7.043,7.043,0,0,1,8,4.02ZM4.13,9a3.911,3.911,0,0,1,0-2H5.82a8.258,8.258,0,0,0-.07,1,8.258,8.258,0,0,0,.07,1Zm.41,1H6.015a7.825,7.825,0,0,0,.69,1.78A3.993,3.993,0,0,1,4.54,10ZM6.015,6H4.54A3.993,3.993,0,0,1,6.7,4.22,7.825,7.825,0,0,0,6.015,6ZM8,11.98A7.043,7.043,0,0,1,7.045,10h1.91A7.043,7.043,0,0,1,8,11.98ZM9.17,9H6.83a7.356,7.356,0,0,1-.08-1,7.292,7.292,0,0,1,.08-1H9.17a7.292,7.292,0,0,1,.08,1A7.356,7.356,0,0,1,9.17,9ZM9.3,11.78A7.825,7.825,0,0,0,9.985,10H11.46A4.015,4.015,0,0,1,9.3,11.78ZM10.18,9a8.257,8.257,0,0,0,.07-1,8.258,8.258,0,0,0-.07-1h1.69a3.911,3.911,0,0,1,0,2Z" transform="translate(43 84)" fill="rgba(255,255,255,0.7)"/>
      </g>
      <g transform="translate(-46)">
        <path id="Icon_material-language-8" data-name="Icon material-language" d="M8,3a5,5,0,1,0,5,5A5,5,0,0,0,8,3ZM11.46,6H9.985A7.825,7.825,0,0,0,9.3,4.22,4.015,4.015,0,0,1,11.46,6ZM8,4.02A7.043,7.043,0,0,1,8.955,6H7.045A7.043,7.043,0,0,1,8,4.02ZM4.13,9a3.911,3.911,0,0,1,0-2H5.82a8.258,8.258,0,0,0-.07,1,8.258,8.258,0,0,0,.07,1Zm.41,1H6.015a7.825,7.825,0,0,0,.69,1.78A3.993,3.993,0,0,1,4.54,10ZM6.015,6H4.54A3.993,3.993,0,0,1,6.7,4.22,7.825,7.825,0,0,0,6.015,6ZM8,11.98A7.043,7.043,0,0,1,7.045,10h1.91A7.043,7.043,0,0,1,8,11.98ZM9.17,9H6.83a7.356,7.356,0,0,1-.08-1,7.292,7.292,0,0,1,.08-1H9.17a7.292,7.292,0,0,1,.08,1A7.356,7.356,0,0,1,9.17,9ZM9.3,11.78A7.825,7.825,0,0,0,9.985,10H11.46A4.015,4.015,0,0,1,9.3,11.78ZM10.18,9a8.257,8.257,0,0,0,.07-1,8.258,8.258,0,0,0-.07-1h1.69a3.911,3.911,0,0,1,0,2Z" transform="translate(43 84)" fill="rgba(255,255,255,0.7)"/>
      </g>
      <g transform="translate(41)">
        <path id="Icon_material-language-9" data-name="Icon material-language" d="M8,3a5,5,0,1,0,5,5A5,5,0,0,0,8,3ZM11.46,6H9.985A7.825,7.825,0,0,0,9.3,4.22,4.015,4.015,0,0,1,11.46,6ZM8,4.02A7.043,7.043,0,0,1,8.955,6H7.045A7.043,7.043,0,0,1,8,4.02ZM4.13,9a3.911,3.911,0,0,1,0-2H5.82a8.258,8.258,0,0,0-.07,1,8.258,8.258,0,0,0,.07,1Zm.41,1H6.015a7.825,7.825,0,0,0,.69,1.78A3.993,3.993,0,0,1,4.54,10ZM6.015,6H4.54A3.993,3.993,0,0,1,6.7,4.22,7.825,7.825,0,0,0,6.015,6ZM8,11.98A7.043,7.043,0,0,1,7.045,10h1.91A7.043,7.043,0,0,1,8,11.98ZM9.17,9H6.83a7.356,7.356,0,0,1-.08-1,7.292,7.292,0,0,1,.08-1H9.17a7.292,7.292,0,0,1,.08,1A7.356,7.356,0,0,1,9.17,9ZM9.3,11.78A7.825,7.825,0,0,0,9.985,10H11.46A4.015,4.015,0,0,1,9.3,11.78ZM10.18,9a8.257,8.257,0,0,0,.07-1,8.258,8.258,0,0,0-.07-1h1.69a3.911,3.911,0,0,1,0,2Z" transform="translate(43 84)" fill="rgba(255,255,255,0.7)"/>
      </g>
      <g transform="translate(128)">
        <path id="Icon_material-language-10" data-name="Icon material-language" d="M8,3a5,5,0,1,0,5,5A5,5,0,0,0,8,3ZM11.46,6H9.985A7.825,7.825,0,0,0,9.3,4.22,4.015,4.015,0,0,1,11.46,6ZM8,4.02A7.043,7.043,0,0,1,8.955,6H7.045A7.043,7.043,0,0,1,8,4.02ZM4.13,9a3.911,3.911,0,0,1,0-2H5.82a8.258,8.258,0,0,0-.07,1,8.258,8.258,0,0,0,.07,1Zm.41,1H6.015a7.825,7.825,0,0,0,.69,1.78A3.993,3.993,0,0,1,4.54,10ZM6.015,6H4.54A3.993,3.993,0,0,1,6.7,4.22,7.825,7.825,0,0,0,6.015,6ZM8,11.98A7.043,7.043,0,0,1,7.045,10h1.91A7.043,7.043,0,0,1,8,11.98ZM9.17,9H6.83a7.356,7.356,0,0,1-.08-1,7.292,7.292,0,0,1,.08-1H9.17a7.292,7.292,0,0,1,.08,1A7.356,7.356,0,0,1,9.17,9ZM9.3,11.78A7.825,7.825,0,0,0,9.985,10H11.46A4.015,4.015,0,0,1,9.3,11.78ZM10.18,9a8.257,8.257,0,0,0,.07-1,8.258,8.258,0,0,0-.07-1h1.69a3.911,3.911,0,0,1,0,2Z" transform="translate(43 84)" fill="rgba(255,255,255,0.7)"/>
      </g>
      <g transform="translate(215)">
        <path id="Icon_material-language-11" data-name="Icon material-language" d="M8,3a5,5,0,1,0,5,5A5,5,0,0,0,8,3ZM11.46,6H9.985A7.825,7.825,0,0,0,9.3,4.22,4.015,4.015,0,0,1,11.46,6ZM8,4.02A7.043,7.043,0,0,1,8.955,6H7.045A7.043,7.043,0,0,1,8,4.02ZM4.13,9a3.911,3.911,0,0,1,0-2H5.82a8.258,8.258,0,0,0-.07,1,8.258,8.258,0,0,0,.07,1Zm.41,1H6.015a7.825,7.825,0,0,0,.69,1.78A3.993,3.993,0,0,1,4.54,10ZM6.015,6H4.54A3.993,3.993,0,0,1,6.7,4.22,7.825,7.825,0,0,0,6.015,6ZM8,11.98A7.043,7.043,0,0,1,7.045,10h1.91A7.043,7.043,0,0,1,8,11.98ZM9.17,9H6.83a7.356,7.356,0,0,1-.08-1,7.292,7.292,0,0,1,.08-1H9.17a7.292,7.292,0,0,1,.08,1A7.356,7.356,0,0,1,9.17,9ZM9.3,11.78A7.825,7.825,0,0,0,9.985,10H11.46A4.015,4.015,0,0,1,9.3,11.78ZM10.18,9a8.257,8.257,0,0,0,.07-1,8.258,8.258,0,0,0-.07-1h1.69a3.911,3.911,0,0,1,0,2Z" transform="translate(43 84)" fill="rgba(255,255,255,0.7)"/>
      </g>
      <g transform="translate(302)">
        <path id="Icon_material-language-12" data-name="Icon material-language" d="M8,3a5,5,0,1,0,5,5A5,5,0,0,0,8,3ZM11.46,6H9.985A7.825,7.825,0,0,0,9.3,4.22,4.015,4.015,0,0,1,11.46,6ZM8,4.02A7.043,7.043,0,0,1,8.955,6H7.045A7.043,7.043,0,0,1,8,4.02ZM4.13,9a3.911,3.911,0,0,1,0-2H5.82a8.258,8.258,0,0,0-.07,1,8.258,8.258,0,0,0,.07,1Zm.41,1H6.015a7.825,7.825,0,0,0,.69,1.78A3.993,3.993,0,0,1,4.54,10ZM6.015,6H4.54A3.993,3.993,0,0,1,6.7,4.22,7.825,7.825,0,0,0,6.015,6ZM8,11.98A7.043,7.043,0,0,1,7.045,10h1.91A7.043,7.043,0,0,1,8,11.98ZM9.17,9H6.83a7.356,7.356,0,0,1-.08-1,7.292,7.292,0,0,1,.08-1H9.17a7.292,7.292,0,0,1,.08,1A7.356,7.356,0,0,1,9.17,9ZM9.3,11.78A7.825,7.825,0,0,0,9.985,10H11.46A4.015,4.015,0,0,1,9.3,11.78ZM10.18,9a8.257,8.257,0,0,0,.07-1,8.258,8.258,0,0,0-.07-1h1.69a3.911,3.911,0,0,1,0,2Z" transform="translate(43 84)" fill="rgba(255,255,255,0.7)"/>
      </g>
      <g transform="translate(389)">
        <path id="Icon_material-language-13" data-name="Icon material-language" d="M8,3a5,5,0,1,0,5,5A5,5,0,0,0,8,3ZM11.46,6H9.985A7.825,7.825,0,0,0,9.3,4.22,4.015,4.015,0,0,1,11.46,6ZM8,4.02A7.043,7.043,0,0,1,8.955,6H7.045A7.043,7.043,0,0,1,8,4.02ZM4.13,9a3.911,3.911,0,0,1,0-2H5.82a8.258,8.258,0,0,0-.07,1,8.258,8.258,0,0,0,.07,1Zm.41,1H6.015a7.825,7.825,0,0,0,.69,1.78A3.993,3.993,0,0,1,4.54,10ZM6.015,6H4.54A3.993,3.993,0,0,1,6.7,4.22,7.825,7.825,0,0,0,6.015,6ZM8,11.98A7.043,7.043,0,0,1,7.045,10h1.91A7.043,7.043,0,0,1,8,11.98ZM9.17,9H6.83a7.356,7.356,0,0,1-.08-1,7.292,7.292,0,0,1,.08-1H9.17a7.292,7.292,0,0,1,.08,1A7.356,7.356,0,0,1,9.17,9ZM9.3,11.78A7.825,7.825,0,0,0,9.985,10H11.46A4.015,4.015,0,0,1,9.3,11.78ZM10.18,9a8.257,8.257,0,0,0,.07-1,8.258,8.258,0,0,0-.07-1h1.69a3.911,3.911,0,0,1,0,2Z" transform="translate(43 84)" fill="rgba(255,255,255,0.7)"/>
      </g>
      <g transform="translate(476)">
        <path id="Icon_material-language-14" data-name="Icon material-language" d="M8,3a5,5,0,1,0,5,5A5,5,0,0,0,8,3ZM11.46,6H9.985A7.825,7.825,0,0,0,9.3,4.22,4.015,4.015,0,0,1,11.46,6ZM8,4.02A7.043,7.043,0,0,1,8.955,6H7.045A7.043,7.043,0,0,1,8,4.02ZM4.13,9a3.911,3.911,0,0,1,0-2H5.82a8.258,8.258,0,0,0-.07,1,8.258,8.258,0,0,0,.07,1Zm.41,1H6.015a7.825,7.825,0,0,0,.69,1.78A3.993,3.993,0,0,1,4.54,10ZM6.015,6H4.54A3.993,3.993,0,0,1,6.7,4.22,7.825,7.825,0,0,0,6.015,6ZM8,11.98A7.043,7.043,0,0,1,7.045,10h1.91A7.043,7.043,0,0,1,8,11.98ZM9.17,9H6.83a7.356,7.356,0,0,1-.08-1,7.292,7.292,0,0,1,.08-1H9.17a7.292,7.292,0,0,1,.08,1A7.356,7.356,0,0,1,9.17,9ZM9.3,11.78A7.825,7.825,0,0,0,9.985,10H11.46A4.015,4.015,0,0,1,9.3,11.78ZM10.18,9a8.257,8.257,0,0,0,.07-1,8.258,8.258,0,0,0-.07-1h1.69a3.911,3.911,0,0,1,0,2Z" transform="translate(43 84)" fill="rgba(255,255,255,0.7)"/>
      </g>
      <g transform="translate(-46 87)">
        <path id="Icon_material-language-15" data-name="Icon material-language" d="M8,3a5,5,0,1,0,5,5A5,5,0,0,0,8,3ZM11.46,6H9.985A7.825,7.825,0,0,0,9.3,4.22,4.015,4.015,0,0,1,11.46,6ZM8,4.02A7.043,7.043,0,0,1,8.955,6H7.045A7.043,7.043,0,0,1,8,4.02ZM4.13,9a3.911,3.911,0,0,1,0-2H5.82a8.258,8.258,0,0,0-.07,1,8.258,8.258,0,0,0,.07,1Zm.41,1H6.015a7.825,7.825,0,0,0,.69,1.78A3.993,3.993,0,0,1,4.54,10ZM6.015,6H4.54A3.993,3.993,0,0,1,6.7,4.22,7.825,7.825,0,0,0,6.015,6ZM8,11.98A7.043,7.043,0,0,1,7.045,10h1.91A7.043,7.043,0,0,1,8,11.98ZM9.17,9H6.83a7.356,7.356,0,0,1-.08-1,7.292,7.292,0,0,1,.08-1H9.17a7.292,7.292,0,0,1,.08,1A7.356,7.356,0,0,1,9.17,9ZM9.3,11.78A7.825,7.825,0,0,0,9.985,10H11.46A4.015,4.015,0,0,1,9.3,11.78ZM10.18,9a8.257,8.257,0,0,0,.07-1,8.258,8.258,0,0,0-.07-1h1.69a3.911,3.911,0,0,1,0,2Z" transform="translate(43 84)" fill="rgba(255,255,255,0.7)"/>
      </g>
      <g transform="translate(41 87)">
        <path id="Icon_material-language-16" data-name="Icon material-language" d="M8,3a5,5,0,1,0,5,5A5,5,0,0,0,8,3ZM11.46,6H9.985A7.825,7.825,0,0,0,9.3,4.22,4.015,4.015,0,0,1,11.46,6ZM8,4.02A7.043,7.043,0,0,1,8.955,6H7.045A7.043,7.043,0,0,1,8,4.02ZM4.13,9a3.911,3.911,0,0,1,0-2H5.82a8.258,8.258,0,0,0-.07,1,8.258,8.258,0,0,0,.07,1Zm.41,1H6.015a7.825,7.825,0,0,0,.69,1.78A3.993,3.993,0,0,1,4.54,10ZM6.015,6H4.54A3.993,3.993,0,0,1,6.7,4.22,7.825,7.825,0,0,0,6.015,6ZM8,11.98A7.043,7.043,0,0,1,7.045,10h1.91A7.043,7.043,0,0,1,8,11.98ZM9.17,9H6.83a7.356,7.356,0,0,1-.08-1,7.292,7.292,0,0,1,.08-1H9.17a7.292,7.292,0,0,1,.08,1A7.356,7.356,0,0,1,9.17,9ZM9.3,11.78A7.825,7.825,0,0,0,9.985,10H11.46A4.015,4.015,0,0,1,9.3,11.78ZM10.18,9a8.257,8.257,0,0,0,.07-1,8.258,8.258,0,0,0-.07-1h1.69a3.911,3.911,0,0,1,0,2Z" transform="translate(43 84)" fill="rgba(255,255,255,0.7)"/>
      </g>
      <g transform="translate(128 87)">
        <path id="Icon_material-language-17" data-name="Icon material-language" d="M8,3a5,5,0,1,0,5,5A5,5,0,0,0,8,3ZM11.46,6H9.985A7.825,7.825,0,0,0,9.3,4.22,4.015,4.015,0,0,1,11.46,6ZM8,4.02A7.043,7.043,0,0,1,8.955,6H7.045A7.043,7.043,0,0,1,8,4.02ZM4.13,9a3.911,3.911,0,0,1,0-2H5.82a8.258,8.258,0,0,0-.07,1,8.258,8.258,0,0,0,.07,1Zm.41,1H6.015a7.825,7.825,0,0,0,.69,1.78A3.993,3.993,0,0,1,4.54,10ZM6.015,6H4.54A3.993,3.993,0,0,1,6.7,4.22,7.825,7.825,0,0,0,6.015,6ZM8,11.98A7.043,7.043,0,0,1,7.045,10h1.91A7.043,7.043,0,0,1,8,11.98ZM9.17,9H6.83a7.356,7.356,0,0,1-.08-1,7.292,7.292,0,0,1,.08-1H9.17a7.292,7.292,0,0,1,.08,1A7.356,7.356,0,0,1,9.17,9ZM9.3,11.78A7.825,7.825,0,0,0,9.985,10H11.46A4.015,4.015,0,0,1,9.3,11.78ZM10.18,9a8.257,8.257,0,0,0,.07-1,8.258,8.258,0,0,0-.07-1h1.69a3.911,3.911,0,0,1,0,2Z" transform="translate(43 84)" fill="rgba(255,255,255,0.7)"/>
      </g>
      <g transform="translate(215 87)">
        <path id="Icon_material-language-18" data-name="Icon material-language" d="M8,3a5,5,0,1,0,5,5A5,5,0,0,0,8,3ZM11.46,6H9.985A7.825,7.825,0,0,0,9.3,4.22,4.015,4.015,0,0,1,11.46,6ZM8,4.02A7.043,7.043,0,0,1,8.955,6H7.045A7.043,7.043,0,0,1,8,4.02ZM4.13,9a3.911,3.911,0,0,1,0-2H5.82a8.258,8.258,0,0,0-.07,1,8.258,8.258,0,0,0,.07,1Zm.41,1H6.015a7.825,7.825,0,0,0,.69,1.78A3.993,3.993,0,0,1,4.54,10ZM6.015,6H4.54A3.993,3.993,0,0,1,6.7,4.22,7.825,7.825,0,0,0,6.015,6ZM8,11.98A7.043,7.043,0,0,1,7.045,10h1.91A7.043,7.043,0,0,1,8,11.98ZM9.17,9H6.83a7.356,7.356,0,0,1-.08-1,7.292,7.292,0,0,1,.08-1H9.17a7.292,7.292,0,0,1,.08,1A7.356,7.356,0,0,1,9.17,9ZM9.3,11.78A7.825,7.825,0,0,0,9.985,10H11.46A4.015,4.015,0,0,1,9.3,11.78ZM10.18,9a8.257,8.257,0,0,0,.07-1,8.258,8.258,0,0,0-.07-1h1.69a3.911,3.911,0,0,1,0,2Z" transform="translate(43 84)" fill="rgba(255,255,255,0.7)"/>
      </g>
      <g transform="translate(302 87)">
        <path id="Icon_material-language-19" data-name="Icon material-language" d="M8,3a5,5,0,1,0,5,5A5,5,0,0,0,8,3ZM11.46,6H9.985A7.825,7.825,0,0,0,9.3,4.22,4.015,4.015,0,0,1,11.46,6ZM8,4.02A7.043,7.043,0,0,1,8.955,6H7.045A7.043,7.043,0,0,1,8,4.02ZM4.13,9a3.911,3.911,0,0,1,0-2H5.82a8.258,8.258,0,0,0-.07,1,8.258,8.258,0,0,0,.07,1Zm.41,1H6.015a7.825,7.825,0,0,0,.69,1.78A3.993,3.993,0,0,1,4.54,10ZM6.015,6H4.54A3.993,3.993,0,0,1,6.7,4.22,7.825,7.825,0,0,0,6.015,6ZM8,11.98A7.043,7.043,0,0,1,7.045,10h1.91A7.043,7.043,0,0,1,8,11.98ZM9.17,9H6.83a7.356,7.356,0,0,1-.08-1,7.292,7.292,0,0,1,.08-1H9.17a7.292,7.292,0,0,1,.08,1A7.356,7.356,0,0,1,9.17,9ZM9.3,11.78A7.825,7.825,0,0,0,9.985,10H11.46A4.015,4.015,0,0,1,9.3,11.78ZM10.18,9a8.257,8.257,0,0,0,.07-1,8.258,8.258,0,0,0-.07-1h1.69a3.911,3.911,0,0,1,0,2Z" transform="translate(43 84)" fill="rgba(255,255,255,0.7)"/>
      </g>
      <g transform="translate(389 87)">
        <path id="Icon_material-language-20" data-name="Icon material-language" d="M8,3a5,5,0,1,0,5,5A5,5,0,0,0,8,3ZM11.46,6H9.985A7.825,7.825,0,0,0,9.3,4.22,4.015,4.015,0,0,1,11.46,6ZM8,4.02A7.043,7.043,0,0,1,8.955,6H7.045A7.043,7.043,0,0,1,8,4.02ZM4.13,9a3.911,3.911,0,0,1,0-2H5.82a8.258,8.258,0,0,0-.07,1,8.258,8.258,0,0,0,.07,1Zm.41,1H6.015a7.825,7.825,0,0,0,.69,1.78A3.993,3.993,0,0,1,4.54,10ZM6.015,6H4.54A3.993,3.993,0,0,1,6.7,4.22,7.825,7.825,0,0,0,6.015,6ZM8,11.98A7.043,7.043,0,0,1,7.045,10h1.91A7.043,7.043,0,0,1,8,11.98ZM9.17,9H6.83a7.356,7.356,0,0,1-.08-1,7.292,7.292,0,0,1,.08-1H9.17a7.292,7.292,0,0,1,.08,1A7.356,7.356,0,0,1,9.17,9ZM9.3,11.78A7.825,7.825,0,0,0,9.985,10H11.46A4.015,4.015,0,0,1,9.3,11.78ZM10.18,9a8.257,8.257,0,0,0,.07-1,8.258,8.258,0,0,0-.07-1h1.69a3.911,3.911,0,0,1,0,2Z" transform="translate(43 84)" fill="rgba(255,255,255,0.7)"/>
      </g>
      <g transform="translate(476 87)">
        <path id="Icon_material-language-21" data-name="Icon material-language" d="M8,3a5,5,0,1,0,5,5A5,5,0,0,0,8,3ZM11.46,6H9.985A7.825,7.825,0,0,0,9.3,4.22,4.015,4.015,0,0,1,11.46,6ZM8,4.02A7.043,7.043,0,0,1,8.955,6H7.045A7.043,7.043,0,0,1,8,4.02ZM4.13,9a3.911,3.911,0,0,1,0-2H5.82a8.258,8.258,0,0,0-.07,1,8.258,8.258,0,0,0,.07,1Zm.41,1H6.015a7.825,7.825,0,0,0,.69,1.78A3.993,3.993,0,0,1,4.54,10ZM6.015,6H4.54A3.993,3.993,0,0,1,6.7,4.22,7.825,7.825,0,0,0,6.015,6ZM8,11.98A7.043,7.043,0,0,1,7.045,10h1.91A7.043,7.043,0,0,1,8,11.98ZM9.17,9H6.83a7.356,7.356,0,0,1-.08-1,7.292,7.292,0,0,1,.08-1H9.17a7.292,7.292,0,0,1,.08,1A7.356,7.356,0,0,1,9.17,9ZM9.3,11.78A7.825,7.825,0,0,0,9.985,10H11.46A4.015,4.015,0,0,1,9.3,11.78ZM10.18,9a8.257,8.257,0,0,0,.07-1,8.258,8.258,0,0,0-.07-1h1.69a3.911,3.911,0,0,1,0,2Z" transform="translate(43 84)" fill="rgba(255,255,255,0.7)"/>
      </g>
      <g transform="translate(-46 174)">
        <path id="Icon_material-language-22" data-name="Icon material-language" d="M8,3a5,5,0,1,0,5,5A5,5,0,0,0,8,3ZM11.46,6H9.985A7.825,7.825,0,0,0,9.3,4.22,4.015,4.015,0,0,1,11.46,6ZM8,4.02A7.043,7.043,0,0,1,8.955,6H7.045A7.043,7.043,0,0,1,8,4.02ZM4.13,9a3.911,3.911,0,0,1,0-2H5.82a8.258,8.258,0,0,0-.07,1,8.258,8.258,0,0,0,.07,1Zm.41,1H6.015a7.825,7.825,0,0,0,.69,1.78A3.993,3.993,0,0,1,4.54,10ZM6.015,6H4.54A3.993,3.993,0,0,1,6.7,4.22,7.825,7.825,0,0,0,6.015,6ZM8,11.98A7.043,7.043,0,0,1,7.045,10h1.91A7.043,7.043,0,0,1,8,11.98ZM9.17,9H6.83a7.356,7.356,0,0,1-.08-1,7.292,7.292,0,0,1,.08-1H9.17a7.292,7.292,0,0,1,.08,1A7.356,7.356,0,0,1,9.17,9ZM9.3,11.78A7.825,7.825,0,0,0,9.985,10H11.46A4.015,4.015,0,0,1,9.3,11.78ZM10.18,9a8.257,8.257,0,0,0,.07-1,8.258,8.258,0,0,0-.07-1h1.69a3.911,3.911,0,0,1,0,2Z" transform="translate(43 84)" fill="rgba(255,255,255,0.7)"/>
      </g>
      <g transform="translate(41 174)">
        <path id="Icon_material-language-23" data-name="Icon material-language" d="M8,3a5,5,0,1,0,5,5A5,5,0,0,0,8,3ZM11.46,6H9.985A7.825,7.825,0,0,0,9.3,4.22,4.015,4.015,0,0,1,11.46,6ZM8,4.02A7.043,7.043,0,0,1,8.955,6H7.045A7.043,7.043,0,0,1,8,4.02ZM4.13,9a3.911,3.911,0,0,1,0-2H5.82a8.258,8.258,0,0,0-.07,1,8.258,8.258,0,0,0,.07,1Zm.41,1H6.015a7.825,7.825,0,0,0,.69,1.78A3.993,3.993,0,0,1,4.54,10ZM6.015,6H4.54A3.993,3.993,0,0,1,6.7,4.22,7.825,7.825,0,0,0,6.015,6ZM8,11.98A7.043,7.043,0,0,1,7.045,10h1.91A7.043,7.043,0,0,1,8,11.98ZM9.17,9H6.83a7.356,7.356,0,0,1-.08-1,7.292,7.292,0,0,1,.08-1H9.17a7.292,7.292,0,0,1,.08,1A7.356,7.356,0,0,1,9.17,9ZM9.3,11.78A7.825,7.825,0,0,0,9.985,10H11.46A4.015,4.015,0,0,1,9.3,11.78ZM10.18,9a8.257,8.257,0,0,0,.07-1,8.258,8.258,0,0,0-.07-1h1.69a3.911,3.911,0,0,1,0,2Z" transform="translate(43 84)" fill="rgba(255,255,255,0.7)"/>
      </g>
      <g transform="translate(128 174)">
        <path id="Icon_material-language-24" data-name="Icon material-language" d="M8,3a5,5,0,1,0,5,5A5,5,0,0,0,8,3ZM11.46,6H9.985A7.825,7.825,0,0,0,9.3,4.22,4.015,4.015,0,0,1,11.46,6ZM8,4.02A7.043,7.043,0,0,1,8.955,6H7.045A7.043,7.043,0,0,1,8,4.02ZM4.13,9a3.911,3.911,0,0,1,0-2H5.82a8.258,8.258,0,0,0-.07,1,8.258,8.258,0,0,0,.07,1Zm.41,1H6.015a7.825,7.825,0,0,0,.69,1.78A3.993,3.993,0,0,1,4.54,10ZM6.015,6H4.54A3.993,3.993,0,0,1,6.7,4.22,7.825,7.825,0,0,0,6.015,6ZM8,11.98A7.043,7.043,0,0,1,7.045,10h1.91A7.043,7.043,0,0,1,8,11.98ZM9.17,9H6.83a7.356,7.356,0,0,1-.08-1,7.292,7.292,0,0,1,.08-1H9.17a7.292,7.292,0,0,1,.08,1A7.356,7.356,0,0,1,9.17,9ZM9.3,11.78A7.825,7.825,0,0,0,9.985,10H11.46A4.015,4.015,0,0,1,9.3,11.78ZM10.18,9a8.257,8.257,0,0,0,.07-1,8.258,8.258,0,0,0-.07-1h1.69a3.911,3.911,0,0,1,0,2Z" transform="translate(43 84)" fill="rgba(255,255,255,0.7)"/>
      </g>
      <g transform="translate(215 174)">
        <path id="Icon_material-language-25" data-name="Icon material-language" d="M8,3a5,5,0,1,0,5,5A5,5,0,0,0,8,3ZM11.46,6H9.985A7.825,7.825,0,0,0,9.3,4.22,4.015,4.015,0,0,1,11.46,6ZM8,4.02A7.043,7.043,0,0,1,8.955,6H7.045A7.043,7.043,0,0,1,8,4.02ZM4.13,9a3.911,3.911,0,0,1,0-2H5.82a8.258,8.258,0,0,0-.07,1,8.258,8.258,0,0,0,.07,1Zm.41,1H6.015a7.825,7.825,0,0,0,.69,1.78A3.993,3.993,0,0,1,4.54,10ZM6.015,6H4.54A3.993,3.993,0,0,1,6.7,4.22,7.825,7.825,0,0,0,6.015,6ZM8,11.98A7.043,7.043,0,0,1,7.045,10h1.91A7.043,7.043,0,0,1,8,11.98ZM9.17,9H6.83a7.356,7.356,0,0,1-.08-1,7.292,7.292,0,0,1,.08-1H9.17a7.292,7.292,0,0,1,.08,1A7.356,7.356,0,0,1,9.17,9ZM9.3,11.78A7.825,7.825,0,0,0,9.985,10H11.46A4.015,4.015,0,0,1,9.3,11.78ZM10.18,9a8.257,8.257,0,0,0,.07-1,8.258,8.258,0,0,0-.07-1h1.69a3.911,3.911,0,0,1,0,2Z" transform="translate(43 84)" fill="rgba(255,255,255,0.7)"/>
      </g>
      <g transform="translate(302 174)">
        <path id="Icon_material-language-26" data-name="Icon material-language" d="M8,3a5,5,0,1,0,5,5A5,5,0,0,0,8,3ZM11.46,6H9.985A7.825,7.825,0,0,0,9.3,4.22,4.015,4.015,0,0,1,11.46,6ZM8,4.02A7.043,7.043,0,0,1,8.955,6H7.045A7.043,7.043,0,0,1,8,4.02ZM4.13,9a3.911,3.911,0,0,1,0-2H5.82a8.258,8.258,0,0,0-.07,1,8.258,8.258,0,0,0,.07,1Zm.41,1H6.015a7.825,7.825,0,0,0,.69,1.78A3.993,3.993,0,0,1,4.54,10ZM6.015,6H4.54A3.993,3.993,0,0,1,6.7,4.22,7.825,7.825,0,0,0,6.015,6ZM8,11.98A7.043,7.043,0,0,1,7.045,10h1.91A7.043,7.043,0,0,1,8,11.98ZM9.17,9H6.83a7.356,7.356,0,0,1-.08-1,7.292,7.292,0,0,1,.08-1H9.17a7.292,7.292,0,0,1,.08,1A7.356,7.356,0,0,1,9.17,9ZM9.3,11.78A7.825,7.825,0,0,0,9.985,10H11.46A4.015,4.015,0,0,1,9.3,11.78ZM10.18,9a8.257,8.257,0,0,0,.07-1,8.258,8.258,0,0,0-.07-1h1.69a3.911,3.911,0,0,1,0,2Z" transform="translate(43 84)" fill="rgba(255,255,255,0.7)"/>
      </g>
      <g transform="translate(389 174)">
        <path id="Icon_material-language-27" data-name="Icon material-language" d="M8,3a5,5,0,1,0,5,5A5,5,0,0,0,8,3ZM11.46,6H9.985A7.825,7.825,0,0,0,9.3,4.22,4.015,4.015,0,0,1,11.46,6ZM8,4.02A7.043,7.043,0,0,1,8.955,6H7.045A7.043,7.043,0,0,1,8,4.02ZM4.13,9a3.911,3.911,0,0,1,0-2H5.82a8.258,8.258,0,0,0-.07,1,8.258,8.258,0,0,0,.07,1Zm.41,1H6.015a7.825,7.825,0,0,0,.69,1.78A3.993,3.993,0,0,1,4.54,10ZM6.015,6H4.54A3.993,3.993,0,0,1,6.7,4.22,7.825,7.825,0,0,0,6.015,6ZM8,11.98A7.043,7.043,0,0,1,7.045,10h1.91A7.043,7.043,0,0,1,8,11.98ZM9.17,9H6.83a7.356,7.356,0,0,1-.08-1,7.292,7.292,0,0,1,.08-1H9.17a7.292,7.292,0,0,1,.08,1A7.356,7.356,0,0,1,9.17,9ZM9.3,11.78A7.825,7.825,0,0,0,9.985,10H11.46A4.015,4.015,0,0,1,9.3,11.78ZM10.18,9a8.257,8.257,0,0,0,.07-1,8.258,8.258,0,0,0-.07-1h1.69a3.911,3.911,0,0,1,0,2Z" transform="translate(43 84)" fill="rgba(255,255,255,0.7)"/>
      </g>
      <g transform="translate(476 174)">
        <path id="Icon_material-language-28" data-name="Icon material-language" d="M8,3a5,5,0,1,0,5,5A5,5,0,0,0,8,3ZM11.46,6H9.985A7.825,7.825,0,0,0,9.3,4.22,4.015,4.015,0,0,1,11.46,6ZM8,4.02A7.043,7.043,0,0,1,8.955,6H7.045A7.043,7.043,0,0,1,8,4.02ZM4.13,9a3.911,3.911,0,0,1,0-2H5.82a8.258,8.258,0,0,0-.07,1,8.258,8.258,0,0,0,.07,1Zm.41,1H6.015a7.825,7.825,0,0,0,.69,1.78A3.993,3.993,0,0,1,4.54,10ZM6.015,6H4.54A3.993,3.993,0,0,1,6.7,4.22,7.825,7.825,0,0,0,6.015,6ZM8,11.98A7.043,7.043,0,0,1,7.045,10h1.91A7.043,7.043,0,0,1,8,11.98ZM9.17,9H6.83a7.356,7.356,0,0,1-.08-1,7.292,7.292,0,0,1,.08-1H9.17a7.292,7.292,0,0,1,.08,1A7.356,7.356,0,0,1,9.17,9ZM9.3,11.78A7.825,7.825,0,0,0,9.985,10H11.46A4.015,4.015,0,0,1,9.3,11.78ZM10.18,9a8.257,8.257,0,0,0,.07-1,8.258,8.258,0,0,0-.07-1h1.69a3.911,3.911,0,0,1,0,2Z" transform="translate(43 84)" fill="rgba(255,255,255,0.7)"/>
      </g>
      <g transform="translate(-46 261)">
        <path id="Icon_material-language-29" data-name="Icon material-language" d="M8,3a5,5,0,1,0,5,5A5,5,0,0,0,8,3ZM11.46,6H9.985A7.825,7.825,0,0,0,9.3,4.22,4.015,4.015,0,0,1,11.46,6ZM8,4.02A7.043,7.043,0,0,1,8.955,6H7.045A7.043,7.043,0,0,1,8,4.02ZM4.13,9a3.911,3.911,0,0,1,0-2H5.82a8.258,8.258,0,0,0-.07,1,8.258,8.258,0,0,0,.07,1Zm.41,1H6.015a7.825,7.825,0,0,0,.69,1.78A3.993,3.993,0,0,1,4.54,10ZM6.015,6H4.54A3.993,3.993,0,0,1,6.7,4.22,7.825,7.825,0,0,0,6.015,6ZM8,11.98A7.043,7.043,0,0,1,7.045,10h1.91A7.043,7.043,0,0,1,8,11.98ZM9.17,9H6.83a7.356,7.356,0,0,1-.08-1,7.292,7.292,0,0,1,.08-1H9.17a7.292,7.292,0,0,1,.08,1A7.356,7.356,0,0,1,9.17,9ZM9.3,11.78A7.825,7.825,0,0,0,9.985,10H11.46A4.015,4.015,0,0,1,9.3,11.78ZM10.18,9a8.257,8.257,0,0,0,.07-1,8.258,8.258,0,0,0-.07-1h1.69a3.911,3.911,0,0,1,0,2Z" transform="translate(43 84)" fill="rgba(255,255,255,0.7)"/>
      </g>
      <g transform="translate(41 261)">
        <path id="Icon_material-language-30" data-name="Icon material-language" d="M8,3a5,5,0,1,0,5,5A5,5,0,0,0,8,3ZM11.46,6H9.985A7.825,7.825,0,0,0,9.3,4.22,4.015,4.015,0,0,1,11.46,6ZM8,4.02A7.043,7.043,0,0,1,8.955,6H7.045A7.043,7.043,0,0,1,8,4.02ZM4.13,9a3.911,3.911,0,0,1,0-2H5.82a8.258,8.258,0,0,0-.07,1,8.258,8.258,0,0,0,.07,1Zm.41,1H6.015a7.825,7.825,0,0,0,.69,1.78A3.993,3.993,0,0,1,4.54,10ZM6.015,6H4.54A3.993,3.993,0,0,1,6.7,4.22,7.825,7.825,0,0,0,6.015,6ZM8,11.98A7.043,7.043,0,0,1,7.045,10h1.91A7.043,7.043,0,0,1,8,11.98ZM9.17,9H6.83a7.356,7.356,0,0,1-.08-1,7.292,7.292,0,0,1,.08-1H9.17a7.292,7.292,0,0,1,.08,1A7.356,7.356,0,0,1,9.17,9ZM9.3,11.78A7.825,7.825,0,0,0,9.985,10H11.46A4.015,4.015,0,0,1,9.3,11.78ZM10.18,9a8.257,8.257,0,0,0,.07-1,8.258,8.258,0,0,0-.07-1h1.69a3.911,3.911,0,0,1,0,2Z" transform="translate(43 84)" fill="rgba(255,255,255,0.7)"/>
      </g>
      <g transform="translate(128 261)">
        <path id="Icon_material-language-31" data-name="Icon material-language" d="M8,3a5,5,0,1,0,5,5A5,5,0,0,0,8,3ZM11.46,6H9.985A7.825,7.825,0,0,0,9.3,4.22,4.015,4.015,0,0,1,11.46,6ZM8,4.02A7.043,7.043,0,0,1,8.955,6H7.045A7.043,7.043,0,0,1,8,4.02ZM4.13,9a3.911,3.911,0,0,1,0-2H5.82a8.258,8.258,0,0,0-.07,1,8.258,8.258,0,0,0,.07,1Zm.41,1H6.015a7.825,7.825,0,0,0,.69,1.78A3.993,3.993,0,0,1,4.54,10ZM6.015,6H4.54A3.993,3.993,0,0,1,6.7,4.22,7.825,7.825,0,0,0,6.015,6ZM8,11.98A7.043,7.043,0,0,1,7.045,10h1.91A7.043,7.043,0,0,1,8,11.98ZM9.17,9H6.83a7.356,7.356,0,0,1-.08-1,7.292,7.292,0,0,1,.08-1H9.17a7.292,7.292,0,0,1,.08,1A7.356,7.356,0,0,1,9.17,9ZM9.3,11.78A7.825,7.825,0,0,0,9.985,10H11.46A4.015,4.015,0,0,1,9.3,11.78ZM10.18,9a8.257,8.257,0,0,0,.07-1,8.258,8.258,0,0,0-.07-1h1.69a3.911,3.911,0,0,1,0,2Z" transform="translate(43 84)" fill="rgba(255,255,255,0.7)"/>
      </g>
      <g transform="translate(215 261)">
        <path id="Icon_material-language-32" data-name="Icon material-language" d="M8,3a5,5,0,1,0,5,5A5,5,0,0,0,8,3ZM11.46,6H9.985A7.825,7.825,0,0,0,9.3,4.22,4.015,4.015,0,0,1,11.46,6ZM8,4.02A7.043,7.043,0,0,1,8.955,6H7.045A7.043,7.043,0,0,1,8,4.02ZM4.13,9a3.911,3.911,0,0,1,0-2H5.82a8.258,8.258,0,0,0-.07,1,8.258,8.258,0,0,0,.07,1Zm.41,1H6.015a7.825,7.825,0,0,0,.69,1.78A3.993,3.993,0,0,1,4.54,10ZM6.015,6H4.54A3.993,3.993,0,0,1,6.7,4.22,7.825,7.825,0,0,0,6.015,6ZM8,11.98A7.043,7.043,0,0,1,7.045,10h1.91A7.043,7.043,0,0,1,8,11.98ZM9.17,9H6.83a7.356,7.356,0,0,1-.08-1,7.292,7.292,0,0,1,.08-1H9.17a7.292,7.292,0,0,1,.08,1A7.356,7.356,0,0,1,9.17,9ZM9.3,11.78A7.825,7.825,0,0,0,9.985,10H11.46A4.015,4.015,0,0,1,9.3,11.78ZM10.18,9a8.257,8.257,0,0,0,.07-1,8.258,8.258,0,0,0-.07-1h1.69a3.911,3.911,0,0,1,0,2Z" transform="translate(43 84)" fill="rgba(255,255,255,0.7)"/>
      </g>
      <g transform="translate(302 261)">
        <path id="Icon_material-language-33" data-name="Icon material-language" d="M8,3a5,5,0,1,0,5,5A5,5,0,0,0,8,3ZM11.46,6H9.985A7.825,7.825,0,0,0,9.3,4.22,4.015,4.015,0,0,1,11.46,6ZM8,4.02A7.043,7.043,0,0,1,8.955,6H7.045A7.043,7.043,0,0,1,8,4.02ZM4.13,9a3.911,3.911,0,0,1,0-2H5.82a8.258,8.258,0,0,0-.07,1,8.258,8.258,0,0,0,.07,1Zm.41,1H6.015a7.825,7.825,0,0,0,.69,1.78A3.993,3.993,0,0,1,4.54,10ZM6.015,6H4.54A3.993,3.993,0,0,1,6.7,4.22,7.825,7.825,0,0,0,6.015,6ZM8,11.98A7.043,7.043,0,0,1,7.045,10h1.91A7.043,7.043,0,0,1,8,11.98ZM9.17,9H6.83a7.356,7.356,0,0,1-.08-1,7.292,7.292,0,0,1,.08-1H9.17a7.292,7.292,0,0,1,.08,1A7.356,7.356,0,0,1,9.17,9ZM9.3,11.78A7.825,7.825,0,0,0,9.985,10H11.46A4.015,4.015,0,0,1,9.3,11.78ZM10.18,9a8.257,8.257,0,0,0,.07-1,8.258,8.258,0,0,0-.07-1h1.69a3.911,3.911,0,0,1,0,2Z" transform="translate(43 84)" fill="rgba(255,255,255,0.7)"/>
      </g>
      <g transform="translate(389 261)">
        <path id="Icon_material-language-34" data-name="Icon material-language" d="M8,3a5,5,0,1,0,5,5A5,5,0,0,0,8,3ZM11.46,6H9.985A7.825,7.825,0,0,0,9.3,4.22,4.015,4.015,0,0,1,11.46,6ZM8,4.02A7.043,7.043,0,0,1,8.955,6H7.045A7.043,7.043,0,0,1,8,4.02ZM4.13,9a3.911,3.911,0,0,1,0-2H5.82a8.258,8.258,0,0,0-.07,1,8.258,8.258,0,0,0,.07,1Zm.41,1H6.015a7.825,7.825,0,0,0,.69,1.78A3.993,3.993,0,0,1,4.54,10ZM6.015,6H4.54A3.993,3.993,0,0,1,6.7,4.22,7.825,7.825,0,0,0,6.015,6ZM8,11.98A7.043,7.043,0,0,1,7.045,10h1.91A7.043,7.043,0,0,1,8,11.98ZM9.17,9H6.83a7.356,7.356,0,0,1-.08-1,7.292,7.292,0,0,1,.08-1H9.17a7.292,7.292,0,0,1,.08,1A7.356,7.356,0,0,1,9.17,9ZM9.3,11.78A7.825,7.825,0,0,0,9.985,10H11.46A4.015,4.015,0,0,1,9.3,11.78ZM10.18,9a8.257,8.257,0,0,0,.07-1,8.258,8.258,0,0,0-.07-1h1.69a3.911,3.911,0,0,1,0,2Z" transform="translate(43 84)" fill="rgba(255,255,255,0.7)"/>
      </g>
      <g transform="translate(476 261)">
        <path id="Icon_material-language-35" data-name="Icon material-language" d="M8,3a5,5,0,1,0,5,5A5,5,0,0,0,8,3ZM11.46,6H9.985A7.825,7.825,0,0,0,9.3,4.22,4.015,4.015,0,0,1,11.46,6ZM8,4.02A7.043,7.043,0,0,1,8.955,6H7.045A7.043,7.043,0,0,1,8,4.02ZM4.13,9a3.911,3.911,0,0,1,0-2H5.82a8.258,8.258,0,0,0-.07,1,8.258,8.258,0,0,0,.07,1Zm.41,1H6.015a7.825,7.825,0,0,0,.69,1.78A3.993,3.993,0,0,1,4.54,10ZM6.015,6H4.54A3.993,3.993,0,0,1,6.7,4.22,7.825,7.825,0,0,0,6.015,6ZM8,11.98A7.043,7.043,0,0,1,7.045,10h1.91A7.043,7.043,0,0,1,8,11.98ZM9.17,9H6.83a7.356,7.356,0,0,1-.08-1,7.292,7.292,0,0,1,.08-1H9.17a7.292,7.292,0,0,1,.08,1A7.356,7.356,0,0,1,9.17,9ZM9.3,11.78A7.825,7.825,0,0,0,9.985,10H11.46A4.015,4.015,0,0,1,9.3,11.78ZM10.18,9a8.257,8.257,0,0,0,.07-1,8.258,8.258,0,0,0-.07-1h1.69a3.911,3.911,0,0,1,0,2Z" transform="translate(43 84)" fill="rgba(255,255,255,0.7)"/>
      </g>
      <g transform="translate(-46 348)">
        <path id="Icon_material-language-36" data-name="Icon material-language" d="M8,3a5,5,0,1,0,5,5A5,5,0,0,0,8,3ZM11.46,6H9.985A7.825,7.825,0,0,0,9.3,4.22,4.015,4.015,0,0,1,11.46,6ZM8,4.02A7.043,7.043,0,0,1,8.955,6H7.045A7.043,7.043,0,0,1,8,4.02ZM4.13,9a3.911,3.911,0,0,1,0-2H5.82a8.258,8.258,0,0,0-.07,1,8.258,8.258,0,0,0,.07,1Zm.41,1H6.015a7.825,7.825,0,0,0,.69,1.78A3.993,3.993,0,0,1,4.54,10ZM6.015,6H4.54A3.993,3.993,0,0,1,6.7,4.22,7.825,7.825,0,0,0,6.015,6ZM8,11.98A7.043,7.043,0,0,1,7.045,10h1.91A7.043,7.043,0,0,1,8,11.98ZM9.17,9H6.83a7.356,7.356,0,0,1-.08-1,7.292,7.292,0,0,1,.08-1H9.17a7.292,7.292,0,0,1,.08,1A7.356,7.356,0,0,1,9.17,9ZM9.3,11.78A7.825,7.825,0,0,0,9.985,10H11.46A4.015,4.015,0,0,1,9.3,11.78ZM10.18,9a8.257,8.257,0,0,0,.07-1,8.258,8.258,0,0,0-.07-1h1.69a3.911,3.911,0,0,1,0,2Z" transform="translate(43 84)" fill="rgba(255,255,255,0.7)"/>
      </g>
      <g transform="translate(41 348)">
        <path id="Icon_material-language-37" data-name="Icon material-language" d="M8,3a5,5,0,1,0,5,5A5,5,0,0,0,8,3ZM11.46,6H9.985A7.825,7.825,0,0,0,9.3,4.22,4.015,4.015,0,0,1,11.46,6ZM8,4.02A7.043,7.043,0,0,1,8.955,6H7.045A7.043,7.043,0,0,1,8,4.02ZM4.13,9a3.911,3.911,0,0,1,0-2H5.82a8.258,8.258,0,0,0-.07,1,8.258,8.258,0,0,0,.07,1Zm.41,1H6.015a7.825,7.825,0,0,0,.69,1.78A3.993,3.993,0,0,1,4.54,10ZM6.015,6H4.54A3.993,3.993,0,0,1,6.7,4.22,7.825,7.825,0,0,0,6.015,6ZM8,11.98A7.043,7.043,0,0,1,7.045,10h1.91A7.043,7.043,0,0,1,8,11.98ZM9.17,9H6.83a7.356,7.356,0,0,1-.08-1,7.292,7.292,0,0,1,.08-1H9.17a7.292,7.292,0,0,1,.08,1A7.356,7.356,0,0,1,9.17,9ZM9.3,11.78A7.825,7.825,0,0,0,9.985,10H11.46A4.015,4.015,0,0,1,9.3,11.78ZM10.18,9a8.257,8.257,0,0,0,.07-1,8.258,8.258,0,0,0-.07-1h1.69a3.911,3.911,0,0,1,0,2Z" transform="translate(43 84)" fill="rgba(255,255,255,0.7)"/>
      </g>
      <g transform="translate(128 348)">
        <path id="Icon_material-language-38" data-name="Icon material-language" d="M8,3a5,5,0,1,0,5,5A5,5,0,0,0,8,3ZM11.46,6H9.985A7.825,7.825,0,0,0,9.3,4.22,4.015,4.015,0,0,1,11.46,6ZM8,4.02A7.043,7.043,0,0,1,8.955,6H7.045A7.043,7.043,0,0,1,8,4.02ZM4.13,9a3.911,3.911,0,0,1,0-2H5.82a8.258,8.258,0,0,0-.07,1,8.258,8.258,0,0,0,.07,1Zm.41,1H6.015a7.825,7.825,0,0,0,.69,1.78A3.993,3.993,0,0,1,4.54,10ZM6.015,6H4.54A3.993,3.993,0,0,1,6.7,4.22,7.825,7.825,0,0,0,6.015,6ZM8,11.98A7.043,7.043,0,0,1,7.045,10h1.91A7.043,7.043,0,0,1,8,11.98ZM9.17,9H6.83a7.356,7.356,0,0,1-.08-1,7.292,7.292,0,0,1,.08-1H9.17a7.292,7.292,0,0,1,.08,1A7.356,7.356,0,0,1,9.17,9ZM9.3,11.78A7.825,7.825,0,0,0,9.985,10H11.46A4.015,4.015,0,0,1,9.3,11.78ZM10.18,9a8.257,8.257,0,0,0,.07-1,8.258,8.258,0,0,0-.07-1h1.69a3.911,3.911,0,0,1,0,2Z" transform="translate(43 84)" fill="rgba(255,255,255,0.7)"/>
      </g>
      <g transform="translate(215 348)">
        <path id="Icon_material-language-39" data-name="Icon material-language" d="M8,3a5,5,0,1,0,5,5A5,5,0,0,0,8,3ZM11.46,6H9.985A7.825,7.825,0,0,0,9.3,4.22,4.015,4.015,0,0,1,11.46,6ZM8,4.02A7.043,7.043,0,0,1,8.955,6H7.045A7.043,7.043,0,0,1,8,4.02ZM4.13,9a3.911,3.911,0,0,1,0-2H5.82a8.258,8.258,0,0,0-.07,1,8.258,8.258,0,0,0,.07,1Zm.41,1H6.015a7.825,7.825,0,0,0,.69,1.78A3.993,3.993,0,0,1,4.54,10ZM6.015,6H4.54A3.993,3.993,0,0,1,6.7,4.22,7.825,7.825,0,0,0,6.015,6ZM8,11.98A7.043,7.043,0,0,1,7.045,10h1.91A7.043,7.043,0,0,1,8,11.98ZM9.17,9H6.83a7.356,7.356,0,0,1-.08-1,7.292,7.292,0,0,1,.08-1H9.17a7.292,7.292,0,0,1,.08,1A7.356,7.356,0,0,1,9.17,9ZM9.3,11.78A7.825,7.825,0,0,0,9.985,10H11.46A4.015,4.015,0,0,1,9.3,11.78ZM10.18,9a8.257,8.257,0,0,0,.07-1,8.258,8.258,0,0,0-.07-1h1.69a3.911,3.911,0,0,1,0,2Z" transform="translate(43 84)" fill="rgba(255,255,255,0.7)"/>
      </g>
      <g transform="translate(302 348)">
        <path id="Icon_material-language-40" data-name="Icon material-language" d="M8,3a5,5,0,1,0,5,5A5,5,0,0,0,8,3ZM11.46,6H9.985A7.825,7.825,0,0,0,9.3,4.22,4.015,4.015,0,0,1,11.46,6ZM8,4.02A7.043,7.043,0,0,1,8.955,6H7.045A7.043,7.043,0,0,1,8,4.02ZM4.13,9a3.911,3.911,0,0,1,0-2H5.82a8.258,8.258,0,0,0-.07,1,8.258,8.258,0,0,0,.07,1Zm.41,1H6.015a7.825,7.825,0,0,0,.69,1.78A3.993,3.993,0,0,1,4.54,10ZM6.015,6H4.54A3.993,3.993,0,0,1,6.7,4.22,7.825,7.825,0,0,0,6.015,6ZM8,11.98A7.043,7.043,0,0,1,7.045,10h1.91A7.043,7.043,0,0,1,8,11.98ZM9.17,9H6.83a7.356,7.356,0,0,1-.08-1,7.292,7.292,0,0,1,.08-1H9.17a7.292,7.292,0,0,1,.08,1A7.356,7.356,0,0,1,9.17,9ZM9.3,11.78A7.825,7.825,0,0,0,9.985,10H11.46A4.015,4.015,0,0,1,9.3,11.78ZM10.18,9a8.257,8.257,0,0,0,.07-1,8.258,8.258,0,0,0-.07-1h1.69a3.911,3.911,0,0,1,0,2Z" transform="translate(43 84)" fill="rgba(255,255,255,0.7)"/>
      </g>
      <g transform="translate(389 348)">
        <path id="Icon_material-language-41" data-name="Icon material-language" d="M8,3a5,5,0,1,0,5,5A5,5,0,0,0,8,3ZM11.46,6H9.985A7.825,7.825,0,0,0,9.3,4.22,4.015,4.015,0,0,1,11.46,6ZM8,4.02A7.043,7.043,0,0,1,8.955,6H7.045A7.043,7.043,0,0,1,8,4.02ZM4.13,9a3.911,3.911,0,0,1,0-2H5.82a8.258,8.258,0,0,0-.07,1,8.258,8.258,0,0,0,.07,1Zm.41,1H6.015a7.825,7.825,0,0,0,.69,1.78A3.993,3.993,0,0,1,4.54,10ZM6.015,6H4.54A3.993,3.993,0,0,1,6.7,4.22,7.825,7.825,0,0,0,6.015,6ZM8,11.98A7.043,7.043,0,0,1,7.045,10h1.91A7.043,7.043,0,0,1,8,11.98ZM9.17,9H6.83a7.356,7.356,0,0,1-.08-1,7.292,7.292,0,0,1,.08-1H9.17a7.292,7.292,0,0,1,.08,1A7.356,7.356,0,0,1,9.17,9ZM9.3,11.78A7.825,7.825,0,0,0,9.985,10H11.46A4.015,4.015,0,0,1,9.3,11.78ZM10.18,9a8.257,8.257,0,0,0,.07-1,8.258,8.258,0,0,0-.07-1h1.69a3.911,3.911,0,0,1,0,2Z" transform="translate(43 84)" fill="rgba(255,255,255,0.7)"/>
      </g>
      <g transform="translate(476 348)">
        <path id="Icon_material-language-42" data-name="Icon material-language" d="M8,3a5,5,0,1,0,5,5A5,5,0,0,0,8,3ZM11.46,6H9.985A7.825,7.825,0,0,0,9.3,4.22,4.015,4.015,0,0,1,11.46,6ZM8,4.02A7.043,7.043,0,0,1,8.955,6H7.045A7.043,7.043,0,0,1,8,4.02ZM4.13,9a3.911,3.911,0,0,1,0-2H5.82a8.258,8.258,0,0,0-.07,1,8.258,8.258,0,0,0,.07,1Zm.41,1H6.015a7.825,7.825,0,0,0,.69,1.78A3.993,3.993,0,0,1,4.54,10ZM6.015,6H4.54A3.993,3.993,0,0,1,6.7,4.22,7.825,7.825,0,0,0,6.015,6ZM8,11.98A7.043,7.043,0,0,1,7.045,10h1.91A7.043,7.043,0,0,1,8,11.98ZM9.17,9H6.83a7.356,7.356,0,0,1-.08-1,7.292,7.292,0,0,1,.08-1H9.17a7.292,7.292,0,0,1,.08,1A7.356,7.356,0,0,1,9.17,9ZM9.3,11.78A7.825,7.825,0,0,0,9.985,10H11.46A4.015,4.015,0,0,1,9.3,11.78ZM10.18,9a8.257,8.257,0,0,0,.07-1,8.258,8.258,0,0,0-.07-1h1.69a3.911,3.911,0,0,1,0,2Z" transform="translate(43 84)" fill="rgba(255,255,255,0.7)"/>
      </g>
      <g transform="translate(-46 435)">
        <path id="Icon_material-language-43" data-name="Icon material-language" d="M8,3a5,5,0,1,0,5,5A5,5,0,0,0,8,3ZM11.46,6H9.985A7.825,7.825,0,0,0,9.3,4.22,4.015,4.015,0,0,1,11.46,6ZM8,4.02A7.043,7.043,0,0,1,8.955,6H7.045A7.043,7.043,0,0,1,8,4.02ZM4.13,9a3.911,3.911,0,0,1,0-2H5.82a8.258,8.258,0,0,0-.07,1,8.258,8.258,0,0,0,.07,1Zm.41,1H6.015a7.825,7.825,0,0,0,.69,1.78A3.993,3.993,0,0,1,4.54,10ZM6.015,6H4.54A3.993,3.993,0,0,1,6.7,4.22,7.825,7.825,0,0,0,6.015,6ZM8,11.98A7.043,7.043,0,0,1,7.045,10h1.91A7.043,7.043,0,0,1,8,11.98ZM9.17,9H6.83a7.356,7.356,0,0,1-.08-1,7.292,7.292,0,0,1,.08-1H9.17a7.292,7.292,0,0,1,.08,1A7.356,7.356,0,0,1,9.17,9ZM9.3,11.78A7.825,7.825,0,0,0,9.985,10H11.46A4.015,4.015,0,0,1,9.3,11.78ZM10.18,9a8.257,8.257,0,0,0,.07-1,8.258,8.258,0,0,0-.07-1h1.69a3.911,3.911,0,0,1,0,2Z" transform="translate(43 84)" fill="rgba(255,255,255,0.7)"/>
      </g>
      <g transform="translate(41 435)">
        <path id="Icon_material-language-44" data-name="Icon material-language" d="M8,3a5,5,0,1,0,5,5A5,5,0,0,0,8,3ZM11.46,6H9.985A7.825,7.825,0,0,0,9.3,4.22,4.015,4.015,0,0,1,11.46,6ZM8,4.02A7.043,7.043,0,0,1,8.955,6H7.045A7.043,7.043,0,0,1,8,4.02ZM4.13,9a3.911,3.911,0,0,1,0-2H5.82a8.258,8.258,0,0,0-.07,1,8.258,8.258,0,0,0,.07,1Zm.41,1H6.015a7.825,7.825,0,0,0,.69,1.78A3.993,3.993,0,0,1,4.54,10ZM6.015,6H4.54A3.993,3.993,0,0,1,6.7,4.22,7.825,7.825,0,0,0,6.015,6ZM8,11.98A7.043,7.043,0,0,1,7.045,10h1.91A7.043,7.043,0,0,1,8,11.98ZM9.17,9H6.83a7.356,7.356,0,0,1-.08-1,7.292,7.292,0,0,1,.08-1H9.17a7.292,7.292,0,0,1,.08,1A7.356,7.356,0,0,1,9.17,9ZM9.3,11.78A7.825,7.825,0,0,0,9.985,10H11.46A4.015,4.015,0,0,1,9.3,11.78ZM10.18,9a8.257,8.257,0,0,0,.07-1,8.258,8.258,0,0,0-.07-1h1.69a3.911,3.911,0,0,1,0,2Z" transform="translate(43 84)" fill="rgba(255,255,255,0.7)"/>
      </g>
      <g transform="translate(128 435)">
        <path id="Icon_material-language-45" data-name="Icon material-language" d="M8,3a5,5,0,1,0,5,5A5,5,0,0,0,8,3ZM11.46,6H9.985A7.825,7.825,0,0,0,9.3,4.22,4.015,4.015,0,0,1,11.46,6ZM8,4.02A7.043,7.043,0,0,1,8.955,6H7.045A7.043,7.043,0,0,1,8,4.02ZM4.13,9a3.911,3.911,0,0,1,0-2H5.82a8.258,8.258,0,0,0-.07,1,8.258,8.258,0,0,0,.07,1Zm.41,1H6.015a7.825,7.825,0,0,0,.69,1.78A3.993,3.993,0,0,1,4.54,10ZM6.015,6H4.54A3.993,3.993,0,0,1,6.7,4.22,7.825,7.825,0,0,0,6.015,6ZM8,11.98A7.043,7.043,0,0,1,7.045,10h1.91A7.043,7.043,0,0,1,8,11.98ZM9.17,9H6.83a7.356,7.356,0,0,1-.08-1,7.292,7.292,0,0,1,.08-1H9.17a7.292,7.292,0,0,1,.08,1A7.356,7.356,0,0,1,9.17,9ZM9.3,11.78A7.825,7.825,0,0,0,9.985,10H11.46A4.015,4.015,0,0,1,9.3,11.78ZM10.18,9a8.257,8.257,0,0,0,.07-1,8.258,8.258,0,0,0-.07-1h1.69a3.911,3.911,0,0,1,0,2Z" transform="translate(43 84)" fill="rgba(255,255,255,0.7)"/>
      </g>
      <g transform="translate(215 435)">
        <path id="Icon_material-language-46" data-name="Icon material-language" d="M8,3a5,5,0,1,0,5,5A5,5,0,0,0,8,3ZM11.46,6H9.985A7.825,7.825,0,0,0,9.3,4.22,4.015,4.015,0,0,1,11.46,6ZM8,4.02A7.043,7.043,0,0,1,8.955,6H7.045A7.043,7.043,0,0,1,8,4.02ZM4.13,9a3.911,3.911,0,0,1,0-2H5.82a8.258,8.258,0,0,0-.07,1,8.258,8.258,0,0,0,.07,1Zm.41,1H6.015a7.825,7.825,0,0,0,.69,1.78A3.993,3.993,0,0,1,4.54,10ZM6.015,6H4.54A3.993,3.993,0,0,1,6.7,4.22,7.825,7.825,0,0,0,6.015,6ZM8,11.98A7.043,7.043,0,0,1,7.045,10h1.91A7.043,7.043,0,0,1,8,11.98ZM9.17,9H6.83a7.356,7.356,0,0,1-.08-1,7.292,7.292,0,0,1,.08-1H9.17a7.292,7.292,0,0,1,.08,1A7.356,7.356,0,0,1,9.17,9ZM9.3,11.78A7.825,7.825,0,0,0,9.985,10H11.46A4.015,4.015,0,0,1,9.3,11.78ZM10.18,9a8.257,8.257,0,0,0,.07-1,8.258,8.258,0,0,0-.07-1h1.69a3.911,3.911,0,0,1,0,2Z" transform="translate(43 84)" fill="rgba(255,255,255,0.7)"/>
      </g>
      <g transform="translate(302 435)">
        <path id="Icon_material-language-47" data-name="Icon material-language" d="M8,3a5,5,0,1,0,5,5A5,5,0,0,0,8,3ZM11.46,6H9.985A7.825,7.825,0,0,0,9.3,4.22,4.015,4.015,0,0,1,11.46,6ZM8,4.02A7.043,7.043,0,0,1,8.955,6H7.045A7.043,7.043,0,0,1,8,4.02ZM4.13,9a3.911,3.911,0,0,1,0-2H5.82a8.258,8.258,0,0,0-.07,1,8.258,8.258,0,0,0,.07,1Zm.41,1H6.015a7.825,7.825,0,0,0,.69,1.78A3.993,3.993,0,0,1,4.54,10ZM6.015,6H4.54A3.993,3.993,0,0,1,6.7,4.22,7.825,7.825,0,0,0,6.015,6ZM8,11.98A7.043,7.043,0,0,1,7.045,10h1.91A7.043,7.043,0,0,1,8,11.98ZM9.17,9H6.83a7.356,7.356,0,0,1-.08-1,7.292,7.292,0,0,1,.08-1H9.17a7.292,7.292,0,0,1,.08,1A7.356,7.356,0,0,1,9.17,9ZM9.3,11.78A7.825,7.825,0,0,0,9.985,10H11.46A4.015,4.015,0,0,1,9.3,11.78ZM10.18,9a8.257,8.257,0,0,0,.07-1,8.258,8.258,0,0,0-.07-1h1.69a3.911,3.911,0,0,1,0,2Z" transform="translate(43 84)" fill="rgba(255,255,255,0.7)"/>
      </g>
      <g transform="translate(389 435)">
        <path id="Icon_material-language-48" data-name="Icon material-language" d="M8,3a5,5,0,1,0,5,5A5,5,0,0,0,8,3ZM11.46,6H9.985A7.825,7.825,0,0,0,9.3,4.22,4.015,4.015,0,0,1,11.46,6ZM8,4.02A7.043,7.043,0,0,1,8.955,6H7.045A7.043,7.043,0,0,1,8,4.02ZM4.13,9a3.911,3.911,0,0,1,0-2H5.82a8.258,8.258,0,0,0-.07,1,8.258,8.258,0,0,0,.07,1Zm.41,1H6.015a7.825,7.825,0,0,0,.69,1.78A3.993,3.993,0,0,1,4.54,10ZM6.015,6H4.54A3.993,3.993,0,0,1,6.7,4.22,7.825,7.825,0,0,0,6.015,6ZM8,11.98A7.043,7.043,0,0,1,7.045,10h1.91A7.043,7.043,0,0,1,8,11.98ZM9.17,9H6.83a7.356,7.356,0,0,1-.08-1,7.292,7.292,0,0,1,.08-1H9.17a7.292,7.292,0,0,1,.08,1A7.356,7.356,0,0,1,9.17,9ZM9.3,11.78A7.825,7.825,0,0,0,9.985,10H11.46A4.015,4.015,0,0,1,9.3,11.78ZM10.18,9a8.257,8.257,0,0,0,.07-1,8.258,8.258,0,0,0-.07-1h1.69a3.911,3.911,0,0,1,0,2Z" transform="translate(43 84)" fill="rgba(255,255,255,0.7)"/>
      </g>
      <g transform="translate(476 435)">
        <path id="Icon_material-language-49" data-name="Icon material-language" d="M8,3a5,5,0,1,0,5,5A5,5,0,0,0,8,3ZM11.46,6H9.985A7.825,7.825,0,0,0,9.3,4.22,4.015,4.015,0,0,1,11.46,6ZM8,4.02A7.043,7.043,0,0,1,8.955,6H7.045A7.043,7.043,0,0,1,8,4.02ZM4.13,9a3.911,3.911,0,0,1,0-2H5.82a8.258,8.258,0,0,0-.07,1,8.258,8.258,0,0,0,.07,1Zm.41,1H6.015a7.825,7.825,0,0,0,.69,1.78A3.993,3.993,0,0,1,4.54,10ZM6.015,6H4.54A3.993,3.993,0,0,1,6.7,4.22,7.825,7.825,0,0,0,6.015,6ZM8,11.98A7.043,7.043,0,0,1,7.045,10h1.91A7.043,7.043,0,0,1,8,11.98ZM9.17,9H6.83a7.356,7.356,0,0,1-.08-1,7.292,7.292,0,0,1,.08-1H9.17a7.292,7.292,0,0,1,.08,1A7.356,7.356,0,0,1,9.17,9ZM9.3,11.78A7.825,7.825,0,0,0,9.985,10H11.46A4.015,4.015,0,0,1,9.3,11.78ZM10.18,9a8.257,8.257,0,0,0,.07-1,8.258,8.258,0,0,0-.07-1h1.69a3.911,3.911,0,0,1,0,2Z" transform="translate(43 84)" fill="rgba(255,255,255,0.7)"/>
      </g>
      <g transform="translate(-46 522)">
        <path id="Icon_material-language-50" data-name="Icon material-language" d="M8,3a5,5,0,1,0,5,5A5,5,0,0,0,8,3ZM11.46,6H9.985A7.825,7.825,0,0,0,9.3,4.22,4.015,4.015,0,0,1,11.46,6ZM8,4.02A7.043,7.043,0,0,1,8.955,6H7.045A7.043,7.043,0,0,1,8,4.02ZM4.13,9a3.911,3.911,0,0,1,0-2H5.82a8.258,8.258,0,0,0-.07,1,8.258,8.258,0,0,0,.07,1Zm.41,1H6.015a7.825,7.825,0,0,0,.69,1.78A3.993,3.993,0,0,1,4.54,10ZM6.015,6H4.54A3.993,3.993,0,0,1,6.7,4.22,7.825,7.825,0,0,0,6.015,6ZM8,11.98A7.043,7.043,0,0,1,7.045,10h1.91A7.043,7.043,0,0,1,8,11.98ZM9.17,9H6.83a7.356,7.356,0,0,1-.08-1,7.292,7.292,0,0,1,.08-1H9.17a7.292,7.292,0,0,1,.08,1A7.356,7.356,0,0,1,9.17,9ZM9.3,11.78A7.825,7.825,0,0,0,9.985,10H11.46A4.015,4.015,0,0,1,9.3,11.78ZM10.18,9a8.257,8.257,0,0,0,.07-1,8.258,8.258,0,0,0-.07-1h1.69a3.911,3.911,0,0,1,0,2Z" transform="translate(43 84)" fill="rgba(255,255,255,0.7)"/>
      </g>
      <g transform="translate(41 522)">
        <path id="Icon_material-language-51" data-name="Icon material-language" d="M8,3a5,5,0,1,0,5,5A5,5,0,0,0,8,3ZM11.46,6H9.985A7.825,7.825,0,0,0,9.3,4.22,4.015,4.015,0,0,1,11.46,6ZM8,4.02A7.043,7.043,0,0,1,8.955,6H7.045A7.043,7.043,0,0,1,8,4.02ZM4.13,9a3.911,3.911,0,0,1,0-2H5.82a8.258,8.258,0,0,0-.07,1,8.258,8.258,0,0,0,.07,1Zm.41,1H6.015a7.825,7.825,0,0,0,.69,1.78A3.993,3.993,0,0,1,4.54,10ZM6.015,6H4.54A3.993,3.993,0,0,1,6.7,4.22,7.825,7.825,0,0,0,6.015,6ZM8,11.98A7.043,7.043,0,0,1,7.045,10h1.91A7.043,7.043,0,0,1,8,11.98ZM9.17,9H6.83a7.356,7.356,0,0,1-.08-1,7.292,7.292,0,0,1,.08-1H9.17a7.292,7.292,0,0,1,.08,1A7.356,7.356,0,0,1,9.17,9ZM9.3,11.78A7.825,7.825,0,0,0,9.985,10H11.46A4.015,4.015,0,0,1,9.3,11.78ZM10.18,9a8.257,8.257,0,0,0,.07-1,8.258,8.258,0,0,0-.07-1h1.69a3.911,3.911,0,0,1,0,2Z" transform="translate(43 84)" fill="rgba(255,255,255,0.7)"/>
      </g>
      <g transform="translate(128 522)">
        <path id="Icon_material-language-52" data-name="Icon material-language" d="M8,3a5,5,0,1,0,5,5A5,5,0,0,0,8,3ZM11.46,6H9.985A7.825,7.825,0,0,0,9.3,4.22,4.015,4.015,0,0,1,11.46,6ZM8,4.02A7.043,7.043,0,0,1,8.955,6H7.045A7.043,7.043,0,0,1,8,4.02ZM4.13,9a3.911,3.911,0,0,1,0-2H5.82a8.258,8.258,0,0,0-.07,1,8.258,8.258,0,0,0,.07,1Zm.41,1H6.015a7.825,7.825,0,0,0,.69,1.78A3.993,3.993,0,0,1,4.54,10ZM6.015,6H4.54A3.993,3.993,0,0,1,6.7,4.22,7.825,7.825,0,0,0,6.015,6ZM8,11.98A7.043,7.043,0,0,1,7.045,10h1.91A7.043,7.043,0,0,1,8,11.98ZM9.17,9H6.83a7.356,7.356,0,0,1-.08-1,7.292,7.292,0,0,1,.08-1H9.17a7.292,7.292,0,0,1,.08,1A7.356,7.356,0,0,1,9.17,9ZM9.3,11.78A7.825,7.825,0,0,0,9.985,10H11.46A4.015,4.015,0,0,1,9.3,11.78ZM10.18,9a8.257,8.257,0,0,0,.07-1,8.258,8.258,0,0,0-.07-1h1.69a3.911,3.911,0,0,1,0,2Z" transform="translate(43 84)" fill="rgba(255,255,255,0.7)"/>
      </g>
      <g transform="translate(215 522)">
        <path id="Icon_material-language-53" data-name="Icon material-language" d="M8,3a5,5,0,1,0,5,5A5,5,0,0,0,8,3ZM11.46,6H9.985A7.825,7.825,0,0,0,9.3,4.22,4.015,4.015,0,0,1,11.46,6ZM8,4.02A7.043,7.043,0,0,1,8.955,6H7.045A7.043,7.043,0,0,1,8,4.02ZM4.13,9a3.911,3.911,0,0,1,0-2H5.82a8.258,8.258,0,0,0-.07,1,8.258,8.258,0,0,0,.07,1Zm.41,1H6.015a7.825,7.825,0,0,0,.69,1.78A3.993,3.993,0,0,1,4.54,10ZM6.015,6H4.54A3.993,3.993,0,0,1,6.7,4.22,7.825,7.825,0,0,0,6.015,6ZM8,11.98A7.043,7.043,0,0,1,7.045,10h1.91A7.043,7.043,0,0,1,8,11.98ZM9.17,9H6.83a7.356,7.356,0,0,1-.08-1,7.292,7.292,0,0,1,.08-1H9.17a7.292,7.292,0,0,1,.08,1A7.356,7.356,0,0,1,9.17,9ZM9.3,11.78A7.825,7.825,0,0,0,9.985,10H11.46A4.015,4.015,0,0,1,9.3,11.78ZM10.18,9a8.257,8.257,0,0,0,.07-1,8.258,8.258,0,0,0-.07-1h1.69a3.911,3.911,0,0,1,0,2Z" transform="translate(43 84)" fill="rgba(255,255,255,0.7)"/>
      </g>
      <g transform="translate(302 522)">
        <path id="Icon_material-language-54" data-name="Icon material-language" d="M8,3a5,5,0,1,0,5,5A5,5,0,0,0,8,3ZM11.46,6H9.985A7.825,7.825,0,0,0,9.3,4.22,4.015,4.015,0,0,1,11.46,6ZM8,4.02A7.043,7.043,0,0,1,8.955,6H7.045A7.043,7.043,0,0,1,8,4.02ZM4.13,9a3.911,3.911,0,0,1,0-2H5.82a8.258,8.258,0,0,0-.07,1,8.258,8.258,0,0,0,.07,1Zm.41,1H6.015a7.825,7.825,0,0,0,.69,1.78A3.993,3.993,0,0,1,4.54,10ZM6.015,6H4.54A3.993,3.993,0,0,1,6.7,4.22,7.825,7.825,0,0,0,6.015,6ZM8,11.98A7.043,7.043,0,0,1,7.045,10h1.91A7.043,7.043,0,0,1,8,11.98ZM9.17,9H6.83a7.356,7.356,0,0,1-.08-1,7.292,7.292,0,0,1,.08-1H9.17a7.292,7.292,0,0,1,.08,1A7.356,7.356,0,0,1,9.17,9ZM9.3,11.78A7.825,7.825,0,0,0,9.985,10H11.46A4.015,4.015,0,0,1,9.3,11.78ZM10.18,9a8.257,8.257,0,0,0,.07-1,8.258,8.258,0,0,0-.07-1h1.69a3.911,3.911,0,0,1,0,2Z" transform="translate(43 84)" fill="rgba(255,255,255,0.7)"/>
      </g>
      <g transform="translate(389 522)">
        <path id="Icon_material-language-55" data-name="Icon material-language" d="M8,3a5,5,0,1,0,5,5A5,5,0,0,0,8,3ZM11.46,6H9.985A7.825,7.825,0,0,0,9.3,4.22,4.015,4.015,0,0,1,11.46,6ZM8,4.02A7.043,7.043,0,0,1,8.955,6H7.045A7.043,7.043,0,0,1,8,4.02ZM4.13,9a3.911,3.911,0,0,1,0-2H5.82a8.258,8.258,0,0,0-.07,1,8.258,8.258,0,0,0,.07,1Zm.41,1H6.015a7.825,7.825,0,0,0,.69,1.78A3.993,3.993,0,0,1,4.54,10ZM6.015,6H4.54A3.993,3.993,0,0,1,6.7,4.22,7.825,7.825,0,0,0,6.015,6ZM8,11.98A7.043,7.043,0,0,1,7.045,10h1.91A7.043,7.043,0,0,1,8,11.98ZM9.17,9H6.83a7.356,7.356,0,0,1-.08-1,7.292,7.292,0,0,1,.08-1H9.17a7.292,7.292,0,0,1,.08,1A7.356,7.356,0,0,1,9.17,9ZM9.3,11.78A7.825,7.825,0,0,0,9.985,10H11.46A4.015,4.015,0,0,1,9.3,11.78ZM10.18,9a8.257,8.257,0,0,0,.07-1,8.258,8.258,0,0,0-.07-1h1.69a3.911,3.911,0,0,1,0,2Z" transform="translate(43 84)" fill="rgba(255,255,255,0.7)"/>
      </g>
      <g transform="translate(476 522)">
        <path id="Icon_material-language-56" data-name="Icon material-language" d="M8,3a5,5,0,1,0,5,5A5,5,0,0,0,8,3ZM11.46,6H9.985A7.825,7.825,0,0,0,9.3,4.22,4.015,4.015,0,0,1,11.46,6ZM8,4.02A7.043,7.043,0,0,1,8.955,6H7.045A7.043,7.043,0,0,1,8,4.02ZM4.13,9a3.911,3.911,0,0,1,0-2H5.82a8.258,8.258,0,0,0-.07,1,8.258,8.258,0,0,0,.07,1Zm.41,1H6.015a7.825,7.825,0,0,0,.69,1.78A3.993,3.993,0,0,1,4.54,10ZM6.015,6H4.54A3.993,3.993,0,0,1,6.7,4.22,7.825,7.825,0,0,0,6.015,6ZM8,11.98A7.043,7.043,0,0,1,7.045,10h1.91A7.043,7.043,0,0,1,8,11.98ZM9.17,9H6.83a7.356,7.356,0,0,1-.08-1,7.292,7.292,0,0,1,.08-1H9.17a7.292,7.292,0,0,1,.08,1A7.356,7.356,0,0,1,9.17,9ZM9.3,11.78A7.825,7.825,0,0,0,9.985,10H11.46A4.015,4.015,0,0,1,9.3,11.78ZM10.18,9a8.257,8.257,0,0,0,.07-1,8.258,8.258,0,0,0-.07-1h1.69a3.911,3.911,0,0,1,0,2Z" transform="translate(43 84)" fill="rgba(255,255,255,0.7)"/>
      </g>
      <g transform="translate(-46 609)">
        <path id="Icon_material-language-57" data-name="Icon material-language" d="M8,3a5,5,0,1,0,5,5A5,5,0,0,0,8,3ZM11.46,6H9.985A7.825,7.825,0,0,0,9.3,4.22,4.015,4.015,0,0,1,11.46,6ZM8,4.02A7.043,7.043,0,0,1,8.955,6H7.045A7.043,7.043,0,0,1,8,4.02ZM4.13,9a3.911,3.911,0,0,1,0-2H5.82a8.258,8.258,0,0,0-.07,1,8.258,8.258,0,0,0,.07,1Zm.41,1H6.015a7.825,7.825,0,0,0,.69,1.78A3.993,3.993,0,0,1,4.54,10ZM6.015,6H4.54A3.993,3.993,0,0,1,6.7,4.22,7.825,7.825,0,0,0,6.015,6ZM8,11.98A7.043,7.043,0,0,1,7.045,10h1.91A7.043,7.043,0,0,1,8,11.98ZM9.17,9H6.83a7.356,7.356,0,0,1-.08-1,7.292,7.292,0,0,1,.08-1H9.17a7.292,7.292,0,0,1,.08,1A7.356,7.356,0,0,1,9.17,9ZM9.3,11.78A7.825,7.825,0,0,0,9.985,10H11.46A4.015,4.015,0,0,1,9.3,11.78ZM10.18,9a8.257,8.257,0,0,0,.07-1,8.258,8.258,0,0,0-.07-1h1.69a3.911,3.911,0,0,1,0,2Z" transform="translate(43 84)" fill="rgba(255,255,255,0.7)"/>
      </g>
      <g transform="translate(41 609)">
        <path id="Icon_material-language-58" data-name="Icon material-language" d="M8,3a5,5,0,1,0,5,5A5,5,0,0,0,8,3ZM11.46,6H9.985A7.825,7.825,0,0,0,9.3,4.22,4.015,4.015,0,0,1,11.46,6ZM8,4.02A7.043,7.043,0,0,1,8.955,6H7.045A7.043,7.043,0,0,1,8,4.02ZM4.13,9a3.911,3.911,0,0,1,0-2H5.82a8.258,8.258,0,0,0-.07,1,8.258,8.258,0,0,0,.07,1Zm.41,1H6.015a7.825,7.825,0,0,0,.69,1.78A3.993,3.993,0,0,1,4.54,10ZM6.015,6H4.54A3.993,3.993,0,0,1,6.7,4.22,7.825,7.825,0,0,0,6.015,6ZM8,11.98A7.043,7.043,0,0,1,7.045,10h1.91A7.043,7.043,0,0,1,8,11.98ZM9.17,9H6.83a7.356,7.356,0,0,1-.08-1,7.292,7.292,0,0,1,.08-1H9.17a7.292,7.292,0,0,1,.08,1A7.356,7.356,0,0,1,9.17,9ZM9.3,11.78A7.825,7.825,0,0,0,9.985,10H11.46A4.015,4.015,0,0,1,9.3,11.78ZM10.18,9a8.257,8.257,0,0,0,.07-1,8.258,8.258,0,0,0-.07-1h1.69a3.911,3.911,0,0,1,0,2Z" transform="translate(43 84)" fill="rgba(255,255,255,0.7)"/>
      </g>
      <g transform="translate(128 609)">
        <path id="Icon_material-language-59" data-name="Icon material-language" d="M8,3a5,5,0,1,0,5,5A5,5,0,0,0,8,3ZM11.46,6H9.985A7.825,7.825,0,0,0,9.3,4.22,4.015,4.015,0,0,1,11.46,6ZM8,4.02A7.043,7.043,0,0,1,8.955,6H7.045A7.043,7.043,0,0,1,8,4.02ZM4.13,9a3.911,3.911,0,0,1,0-2H5.82a8.258,8.258,0,0,0-.07,1,8.258,8.258,0,0,0,.07,1Zm.41,1H6.015a7.825,7.825,0,0,0,.69,1.78A3.993,3.993,0,0,1,4.54,10ZM6.015,6H4.54A3.993,3.993,0,0,1,6.7,4.22,7.825,7.825,0,0,0,6.015,6ZM8,11.98A7.043,7.043,0,0,1,7.045,10h1.91A7.043,7.043,0,0,1,8,11.98ZM9.17,9H6.83a7.356,7.356,0,0,1-.08-1,7.292,7.292,0,0,1,.08-1H9.17a7.292,7.292,0,0,1,.08,1A7.356,7.356,0,0,1,9.17,9ZM9.3,11.78A7.825,7.825,0,0,0,9.985,10H11.46A4.015,4.015,0,0,1,9.3,11.78ZM10.18,9a8.257,8.257,0,0,0,.07-1,8.258,8.258,0,0,0-.07-1h1.69a3.911,3.911,0,0,1,0,2Z" transform="translate(43 84)" fill="rgba(255,255,255,0.7)"/>
      </g>
      <g transform="translate(215 609)">
        <path id="Icon_material-language-60" data-name="Icon material-language" d="M8,3a5,5,0,1,0,5,5A5,5,0,0,0,8,3ZM11.46,6H9.985A7.825,7.825,0,0,0,9.3,4.22,4.015,4.015,0,0,1,11.46,6ZM8,4.02A7.043,7.043,0,0,1,8.955,6H7.045A7.043,7.043,0,0,1,8,4.02ZM4.13,9a3.911,3.911,0,0,1,0-2H5.82a8.258,8.258,0,0,0-.07,1,8.258,8.258,0,0,0,.07,1Zm.41,1H6.015a7.825,7.825,0,0,0,.69,1.78A3.993,3.993,0,0,1,4.54,10ZM6.015,6H4.54A3.993,3.993,0,0,1,6.7,4.22,7.825,7.825,0,0,0,6.015,6ZM8,11.98A7.043,7.043,0,0,1,7.045,10h1.91A7.043,7.043,0,0,1,8,11.98ZM9.17,9H6.83a7.356,7.356,0,0,1-.08-1,7.292,7.292,0,0,1,.08-1H9.17a7.292,7.292,0,0,1,.08,1A7.356,7.356,0,0,1,9.17,9ZM9.3,11.78A7.825,7.825,0,0,0,9.985,10H11.46A4.015,4.015,0,0,1,9.3,11.78ZM10.18,9a8.257,8.257,0,0,0,.07-1,8.258,8.258,0,0,0-.07-1h1.69a3.911,3.911,0,0,1,0,2Z" transform="translate(43 84)" fill="rgba(255,255,255,0.7)"/>
      </g>
      <g transform="translate(302 609)">
        <path id="Icon_material-language-61" data-name="Icon material-language" d="M8,3a5,5,0,1,0,5,5A5,5,0,0,0,8,3ZM11.46,6H9.985A7.825,7.825,0,0,0,9.3,4.22,4.015,4.015,0,0,1,11.46,6ZM8,4.02A7.043,7.043,0,0,1,8.955,6H7.045A7.043,7.043,0,0,1,8,4.02ZM4.13,9a3.911,3.911,0,0,1,0-2H5.82a8.258,8.258,0,0,0-.07,1,8.258,8.258,0,0,0,.07,1Zm.41,1H6.015a7.825,7.825,0,0,0,.69,1.78A3.993,3.993,0,0,1,4.54,10ZM6.015,6H4.54A3.993,3.993,0,0,1,6.7,4.22,7.825,7.825,0,0,0,6.015,6ZM8,11.98A7.043,7.043,0,0,1,7.045,10h1.91A7.043,7.043,0,0,1,8,11.98ZM9.17,9H6.83a7.356,7.356,0,0,1-.08-1,7.292,7.292,0,0,1,.08-1H9.17a7.292,7.292,0,0,1,.08,1A7.356,7.356,0,0,1,9.17,9ZM9.3,11.78A7.825,7.825,0,0,0,9.985,10H11.46A4.015,4.015,0,0,1,9.3,11.78ZM10.18,9a8.257,8.257,0,0,0,.07-1,8.258,8.258,0,0,0-.07-1h1.69a3.911,3.911,0,0,1,0,2Z" transform="translate(43 84)" fill="rgba(255,255,255,0.7)"/>
      </g>
      <g transform="translate(389 609)">
        <path id="Icon_material-language-62" data-name="Icon material-language" d="M8,3a5,5,0,1,0,5,5A5,5,0,0,0,8,3ZM11.46,6H9.985A7.825,7.825,0,0,0,9.3,4.22,4.015,4.015,0,0,1,11.46,6ZM8,4.02A7.043,7.043,0,0,1,8.955,6H7.045A7.043,7.043,0,0,1,8,4.02ZM4.13,9a3.911,3.911,0,0,1,0-2H5.82a8.258,8.258,0,0,0-.07,1,8.258,8.258,0,0,0,.07,1Zm.41,1H6.015a7.825,7.825,0,0,0,.69,1.78A3.993,3.993,0,0,1,4.54,10ZM6.015,6H4.54A3.993,3.993,0,0,1,6.7,4.22,7.825,7.825,0,0,0,6.015,6ZM8,11.98A7.043,7.043,0,0,1,7.045,10h1.91A7.043,7.043,0,0,1,8,11.98ZM9.17,9H6.83a7.356,7.356,0,0,1-.08-1,7.292,7.292,0,0,1,.08-1H9.17a7.292,7.292,0,0,1,.08,1A7.356,7.356,0,0,1,9.17,9ZM9.3,11.78A7.825,7.825,0,0,0,9.985,10H11.46A4.015,4.015,0,0,1,9.3,11.78ZM10.18,9a8.257,8.257,0,0,0,.07-1,8.258,8.258,0,0,0-.07-1h1.69a3.911,3.911,0,0,1,0,2Z" transform="translate(43 84)" fill="rgba(255,255,255,0.7)"/>
      </g>
      <g transform="translate(476 609)">
        <path id="Icon_material-language-63" data-name="Icon material-language" d="M8,3a5,5,0,1,0,5,5A5,5,0,0,0,8,3ZM11.46,6H9.985A7.825,7.825,0,0,0,9.3,4.22,4.015,4.015,0,0,1,11.46,6ZM8,4.02A7.043,7.043,0,0,1,8.955,6H7.045A7.043,7.043,0,0,1,8,4.02ZM4.13,9a3.911,3.911,0,0,1,0-2H5.82a8.258,8.258,0,0,0-.07,1,8.258,8.258,0,0,0,.07,1Zm.41,1H6.015a7.825,7.825,0,0,0,.69,1.78A3.993,3.993,0,0,1,4.54,10ZM6.015,6H4.54A3.993,3.993,0,0,1,6.7,4.22,7.825,7.825,0,0,0,6.015,6ZM8,11.98A7.043,7.043,0,0,1,7.045,10h1.91A7.043,7.043,0,0,1,8,11.98ZM9.17,9H6.83a7.356,7.356,0,0,1-.08-1,7.292,7.292,0,0,1,.08-1H9.17a7.292,7.292,0,0,1,.08,1A7.356,7.356,0,0,1,9.17,9ZM9.3,11.78A7.825,7.825,0,0,0,9.985,10H11.46A4.015,4.015,0,0,1,9.3,11.78ZM10.18,9a8.257,8.257,0,0,0,.07-1,8.258,8.258,0,0,0-.07-1h1.69a3.911,3.911,0,0,1,0,2Z" transform="translate(43 84)" fill="rgba(255,255,255,0.7)"/>
      </g>
    </g>
  </g>
</svg>
