<svg id="family" xmlns="http://www.w3.org/2000/svg" width="169.045" height="136" viewBox="0 0 169.045 136">
  <path id="Pfad_7" data-name="Pfad 7" d="M57.914,21.981A10.975,10.975,0,1,0,46.953,11,10.972,10.972,0,0,0,57.914,21.981Z" transform="translate(35.23 0.048)"/>
  <path id="Pfad_8" data-name="Pfad 8" d="M34.112,22.088A11.045,11.045,0,1,1,45.257,11.04,11.078,11.078,0,0,1,34.112,22.088Z" transform="translate(-0.496 0)"/>
  <circle id="Ellipse_2" data-name="Ellipse 2" cx="7.696" cy="7.696" r="7.696" transform="translate(139.966 49.285)"/>
  <path id="Pfad_9" data-name="Pfad 9" d="M172.759,53.214H152c-.095,0-6.949-.628-6.949-.628l-8.694-30.464c-3.5-12.267-13.735-11.891-13.735-11.891H94.477S84.253,9.855,80.754,22.122l-4.291,15-4.281-15C68.662,9.855,58.456,10.231,58.456,10.231H36.679S26.448,9.855,22.946,22.122l-8.767,30.7a4.435,4.435,0,0,0,3.23,5.78A4.493,4.493,0,0,0,23.1,55.765l8.538-29.923,4.159-.008L23.332,77.644H34.348v36.8a5.468,5.468,0,1,0,10.936,0v-36.8H49.9v36.8a5.468,5.468,0,1,0,10.936,0v-36.8H71.664L59.328,25.834l4.144.008,8.443,29.608a4.153,4.153,0,0,0,.66,1.369,4.908,4.908,0,0,0,7.741.025,4,4,0,0,0,.722-1.527l8.4-29.477,3.83-.008V113.38a6.449,6.449,0,1,0,12.9,0V63.57h4.759v49.81a6.454,6.454,0,1,0,12.908,0V25.832l4.162.008,8.174,29.923a4.219,4.219,0,0,0,3.136,2.819c.06.018.095.045.149.06,1.3.3,7.307,2.008,11.718,3.274v54.3a4.525,4.525,0,1,0,9.051,0V89.087h3.544v27.127a4.529,4.529,0,1,0,9.058,0V65.493H176.3V82.676a3.392,3.392,0,0,0,3.372,3.4,3.351,3.351,0,0,0,3.327-3.4V63.125A10.217,10.217,0,0,0,172.759,53.214Z" transform="translate(-13.955 15.247)"/>
</svg>
