<svg xmlns="http://www.w3.org/2000/svg" width="44.208" height="44.208" viewBox="0 0 44.208 44.208">
  <path id="Icon_awesome-arrow-alt-circle-right" data-name="Icon awesome-arrow-alt-circle-right" d="M22.667.563a22.1,22.1,0,1,1-22.1,22.1A22.1,22.1,0,0,1,22.667.563ZM12.328,26.588H22.667v6.319a1.07,1.07,0,0,0,1.827.758L34.681,23.424a1.06,1.06,0,0,0,0-1.506L24.494,11.668a1.07,1.07,0,0,0-1.827.758v6.319H12.328a1.073,1.073,0,0,0-1.07,1.07v5.7A1.073,1.073,0,0,0,12.328,26.588Z" transform="translate(-0.562 -0.563)" fill="#fff"/>
</svg>
