<svg xmlns="http://www.w3.org/2000/svg" width="50.011" height="50" viewBox="0 0 50.011 50">
  <path id="Icon_awesome-instagram" data-name="Icon awesome-instagram" d="M25.006,14.418A12.819,12.819,0,1,0,37.825,27.238,12.8,12.8,0,0,0,25.006,14.418Zm0,21.154a8.334,8.334,0,1,1,8.334-8.334,8.349,8.349,0,0,1-8.334,8.334ZM41.34,13.894a2.99,2.99,0,1,1-2.99-2.99A2.983,2.983,0,0,1,41.34,13.894Zm8.49,3.035c-.19-4.005-1.1-7.553-4.039-10.476S39.32,2.614,35.315,2.413c-4.128-.234-16.5-.234-20.629,0-3.994.19-7.542,1.1-10.476,4.028S.371,12.912.17,16.917c-.234,4.128-.234,16.5,0,20.629.19,4.005,1.1,7.553,4.039,10.476s6.471,3.838,10.476,4.039c4.128.234,16.5.234,20.629,0,4.005-.19,7.553-1.1,10.476-4.039s3.838-6.471,4.039-10.476c.234-4.128.234-16.49,0-20.618ZM44.5,41.976a8.438,8.438,0,0,1-4.753,4.753c-3.291,1.305-11.1,1-14.738,1s-11.458.29-14.738-1a8.438,8.438,0,0,1-4.753-4.753c-1.305-3.291-1-11.1-1-14.738s-.29-11.458,1-14.738a8.438,8.438,0,0,1,4.753-4.753c3.291-1.305,11.1-1,14.738-1s11.458-.29,14.738,1A8.438,8.438,0,0,1,44.5,12.5c1.305,3.291,1,11.1,1,14.738S45.8,38.7,44.5,41.976Z" transform="translate(0.005 -2.238)" fill="#fff"/>
</svg>
