<svg id="middle-icons" xmlns="http://www.w3.org/2000/svg" width="260.235" height="277" viewBox="0 0 260.235 277">
  <path id="Icon_awesome-spell-check" data-name="Icon awesome-spell-check" d="M68.938,64.884H92.093c10.949,0,20.783-8.161,21.419-19.1a20.231,20.231,0,0,0-6.4-15.985,20.228,20.228,0,0,0,2.3-11.383C108.451,7.748,98.668,0,87.946,0H68.938a4.055,4.055,0,0,0-4.055,4.055V60.829A4.055,4.055,0,0,0,68.938,64.884ZM79.076,14.193H89.214a6.083,6.083,0,0,1,0,12.166H79.076Zm0,24.332H93.269a6.083,6.083,0,0,1,0,12.166H79.076ZM39.314,5.639A8.111,8.111,0,0,0,31.589,0H25.181a8.111,8.111,0,0,0-7.725,5.64L.148,59.747a4.055,4.055,0,0,0,3.906,5.137h6.319a4.055,4.055,0,0,0,3.908-2.973l3.026-9.193H39.463l3.026,9.193A4.055,4.055,0,0,0,46.4,64.884h6.319a4.055,4.055,0,0,0,3.908-5.137ZM22.649,36.5l5.736-17.412L34.121,36.5ZM144.814,70.075,133.355,58.593a4.025,4.025,0,0,0-5.726,0l-38.4,38.4L75.188,82.925a4.025,4.025,0,0,0-5.726,0L57.981,94.406a4.055,4.055,0,0,0,0,5.726l28.387,28.44a4.027,4.027,0,0,0,5.728,0L144.814,75.8a4.055,4.055,0,0,0-.005-5.726Z" transform="translate(-0.001)"/>
  <path id="Icon_material-person-pin-circle" data-name="Icon material-person-pin-circle" d="M73.617,3A66.19,66.19,0,0,0,7.5,69.117c0,49.588,66.117,122.79,66.117,122.79s66.117-73.2,66.117-122.79A66.19,66.19,0,0,0,73.617,3Zm0,18.891A18.891,18.891,0,1,1,54.727,40.781,18.946,18.946,0,0,1,73.617,21.891Zm0,94.453A45.174,45.174,0,0,1,35.836,96.037c.189-12.468,25.219-19.363,37.781-19.363s37.592,6.9,37.781,19.363A45.174,45.174,0,0,1,73.617,116.344Z" transform="translate(120.5 76)"/>
  <g id="Komponente_6_1" data-name="Komponente 6 – 1" transform="translate(0 138.696)">
    <path id="Icon_material-attach-money" data-name="Icon material-attach-money" d="M54.3,69.119C35.736,64.293,29.765,59.3,29.765,51.533c0-8.916,8.261-15.132,22.085-15.132,14.56,0,19.958,6.953,20.449,17.177H90.376C89.8,39.509,81.215,26.585,64.12,22.413V4.5H39.581V22.168C23.712,25.6,10.952,35.91,10.952,51.7c0,18.895,15.623,28.3,38.444,33.782,20.449,4.908,24.539,12.106,24.539,19.713,0,5.644-4.008,14.641-22.085,14.641-16.85,0-23.475-7.525-24.375-17.177h-18c.982,17.913,14.4,27.974,30.1,31.328v17.75H64.12V134.146c15.95-3.026,28.629-12.269,28.629-29.038C92.748,81.879,72.872,73.945,54.3,69.119Z" transform="translate(17.949 -13.428)" fill="rgba(0,0,0,0.79)"/>
    <path id="Icon_material-money-off" data-name="Icon material-money-off" d="M16.508,13.2,6.09,23.614S41.747,62.007,63.757,83.167c32.141,30.9,62.187,60.383,62.187,60.383l10.418-10.418Z" transform="translate(-6.09 -13.196)"/>
  </g>
</svg>
