<svg xmlns="http://www.w3.org/2000/svg" width="213.494" height="136" viewBox="0 0 213.494 136">
  <path id="business" d="M145.009,4.5H116.354a10.34,10.34,0,0,0-7.205,2.974L76.358,39.338c-.033.035-.067.106-.1.142a14.7,14.7,0,0,0-.7,19.826c4.237,4.921,13.143,6.231,18.714.956.033-.035.1-.035.133-.071l26.653-25.916a5.122,5.122,0,0,1,7.54.353,5.912,5.912,0,0,1-.334,8l-8.707,8.461,48.57,41.848a24.771,24.771,0,0,1,2.635,2.726V27.159L152.548,7.828A10.3,10.3,0,0,0,145.009,4.5ZM181.47,27.229V106.5a11.679,11.679,0,0,0,3.123,8.015,10.36,10.36,0,0,0,7.552,3.315h21.349v-90.6Zm16.012,79.27a5.675,5.675,0,1,1,5.337-5.665A5.508,5.508,0,0,1,197.482,106.5ZM0,117.793H21.349a10.36,10.36,0,0,0,7.552-3.315,11.679,11.679,0,0,0,3.123-8.015V27.229H0ZM16.012,95.17a5.675,5.675,0,0,1,0,11.329,5.675,5.675,0,0,1,0-11.329Zm145.409,6.585-49.8-42.91L101.61,68.581a23.049,23.049,0,0,1-33.926-1.558,26.6,26.6,0,0,1,1.468-36.006L96.439,4.5H68.485a10.355,10.355,0,0,0-7.539,3.328L42.7,27.159v79.27h6.1l30.189,29a20.52,20.52,0,0,0,30.023-3.293l.067-.071,5.971,5.488a11.915,11.915,0,0,0,17.446-1.912l10.475-13.666,1.8,1.558A10.238,10.238,0,0,0,152.607,126a10.5,10.5,0,0,0,7.18-4.138l3.169-4.142a11.831,11.831,0,0,0-1.534-15.967Z" transform="translate(0 -4.5)"/>
</svg>
