<svg xmlns="http://www.w3.org/2000/svg" width="32" height="32" viewBox="0 0 32 32">
  <g id="chemistry" transform="translate(-4.75 -4.748)">
    <path id="Pfad_1" data-name="Pfad 1" d="M29.415,30.87a.542.542,0,0,0,.541-.541V28.291a.541.541,0,0,0-1.083,0v2.037A.541.541,0,0,0,29.415,30.87Z" transform="translate(-17.638 -16.874)" fill="#1dcf29"/>
    <path id="Pfad_2" data-name="Pfad 2" d="M27.045,79.827a.541.541,0,0,0-.526-.408H12.875a.541.541,0,0,0-.526.408,7.581,7.581,0,1,0,14.695,0ZM19.7,88.186a6.505,6.505,0,0,1-6.5-6.5,6.439,6.439,0,0,1,.11-1.186H26.086A6.5,6.5,0,0,1,19.7,88.186Z" transform="translate(-5.086 -56.233)" fill="#1dcf29"/>
    <path id="Pfad_3" data-name="Pfad 3" d="M36.277,34.183H34.505V33.036a.473.473,0,0,0-.473-.473H33.7V12.092h1.941a.473.473,0,0,0,.473-.473V10a.473.473,0,0,0-.473-.473H33.7V7.568a.473.473,0,0,0-.473-.473H31.6a.473.473,0,0,0-.473.473V9.526H29.089V7.307a1.28,1.28,0,0,0-.069-2.558H23.349a1.28,1.28,0,1,0-.066,2.559V9.526h-.744a.473.473,0,0,0-.473.473v1.62a.473.473,0,0,0,.473.473h.744v12.2a2.9,2.9,0,0,0,5.806,0v-12.2H31.13V32.563h-.338a.473.473,0,0,0-.473.473v1.148H17.181a8.232,8.232,0,0,0-.112-14.641V9.137A1.28,1.28,0,1,0,17,6.578H9.712a1.28,1.28,0,0,0-.069,2.559v10.4a8.232,8.232,0,0,0-.111,14.641H5.223a.473.473,0,0,0-.473.473v1.62a.473.473,0,0,0,.473.473H36.277a.473.473,0,0,0,.473-.473v-1.62a.473.473,0,0,0-.473-.473Zm-4.2-26.143h.675V9.526h-.675ZM23.012,6.031a.338.338,0,0,1,.338-.338H29.02a.338.338,0,1,1,0,.675H23.349A.338.338,0,0,1,23.012,6.031Zm1.215,1.283h3.916V9.526H24.228Zm-1.215,3.157H35.164v.675H23.012Zm5.131,2.5H26.995a.473.473,0,0,0,0,.945h1.149v.878H26.995a.473.473,0,0,0,0,.945h1.149v.878H26.995a.473.473,0,0,0,0,.945h1.149v.878H26.995a.473.473,0,0,0,0,.945h1.149v.878H26.995a.473.473,0,0,0,0,.945h1.149v3.086a1.958,1.958,0,0,1-3.916,0v-12.2h3.916Zm3.932-.878h.675V32.563h-.675Zm-.81,21.417h2.3v.675h-2.3ZM9.374,7.861a.338.338,0,0,1,.338-.338H17A.338.338,0,0,1,17,8.2H9.712A.338.338,0,0,1,9.374,7.861ZM6.065,26.892a7.311,7.311,0,0,1,4.248-6.624.473.473,0,0,0,.275-.429V9.144h5.536v1.073H14.978a.473.473,0,0,0,0,.945h1.147v.878H14.978a.473.473,0,0,0,0,.945h1.147v.878H14.978a.473.473,0,0,0,0,.945h1.147v.878H14.978a.473.473,0,0,0,0,.945h1.147v.878H14.978a.473.473,0,0,0,0,.945h1.147v1.385a.473.473,0,0,0,.275.429A7.291,7.291,0,1,1,6.065,26.892ZM35.8,35.8H5.7v-.675H35.8Z" fill="#1dcf29"/>
    <path id="Pfad_4" data-name="Pfad 4" d="M28.857,89.792a1.47,1.47,0,1,0,1.47,1.47A1.47,1.47,0,0,0,28.857,89.792Zm0,1.857a.387.387,0,1,1,.387-.387A.387.387,0,0,1,28.857,91.649Z" transform="translate(-16.602 -62.37)" fill="#1dcf29"/>
    <path id="Pfad_5" data-name="Pfad 5" d="M45.344,83.917a1.47,1.47,0,1,0,1.47,1.47A1.47,1.47,0,0,0,45.344,83.917Zm0,1.857a.387.387,0,1,1,.387-.387A.387.387,0,0,1,45.344,85.774Z" transform="translate(-28.693 -58.062)" fill="#1dcf29"/>
    <path id="Pfad_6" data-name="Pfad 6" d="M30.387,64.108a1.47,1.47,0,1,0,1.47-1.47,1.47,1.47,0,0,0-1.47,1.47Zm1.47-.387a.387.387,0,1,1-.387.387A.387.387,0,0,1,31.857,63.721Z" transform="translate(-18.802 -42.456)" fill="#1dcf29"/>
  </g>
</svg>
