<svg xmlns="http://www.w3.org/2000/svg" width="46.333" height="46.333" viewBox="0 0 46.333 46.333">
  <path id="Icon_metro-earth" data-name="Icon metro-earth" d="M25.737,1.928A23.167,23.167,0,1,0,48.9,25.095,23.167,23.167,0,0,0,25.737,1.928Zm0,43.438a20.2,20.2,0,0,1-8.019-1.649L28.268,31.848a1.448,1.448,0,0,0,.366-.962V26.543a1.448,1.448,0,0,0-1.448-1.448c-5.113,0-10.507-5.315-10.56-5.368A1.448,1.448,0,0,0,15.6,19.3H9.81a1.448,1.448,0,0,0-1.448,1.448v8.687a1.448,1.448,0,0,0,.8,1.3l4.991,2.5v8.5A20.283,20.283,0,0,1,7.418,16.407h5.288a1.448,1.448,0,0,0,1.024-.424l5.792-5.792a1.448,1.448,0,0,0,.424-1.024v-3.5a20.328,20.328,0,0,1,14.673,1.2c-.188.158-.37.324-.545.5A8.689,8.689,0,0,0,40.211,22.2q.215,0,.431-.011c.625,2.344,1.753,8.446-.38,16.847a1.444,1.444,0,0,0-.038.236,20.208,20.208,0,0,1-14.486,6.093Z" transform="translate(-2.571 -1.928)"/>
</svg>
