<svg xmlns="http://www.w3.org/2000/svg" width="76.391" height="87.985" viewBox="0 0 76.391 87.985">
  <g id="logo" transform="translate(2.5 2.5)">
    <g id="dizce-logo">
      <path id="Pfad_3" data-name="Pfad 3" d="M405.617-198.488H380.6v82.862h25.017" transform="translate(-380.6 198.488)" fill="#0e1111" stroke="#deeaff" stroke-linejoin="round" stroke-width="5"/>
      <g id="Gruppe_2" data-name="Gruppe 2" transform="translate(25.017)">
        <path id="Pfad_4" data-name="Pfad 4" d="M32.214,82.682,0,49.554V0A46.646,46.646,0,0,1,17.7,3.951,47.438,47.438,0,0,1,32.63,14.337,48.2,48.2,0,0,1,42.688,29.626,48.647,48.647,0,0,1,46.373,48.3a48.647,48.647,0,0,1-3.685,18.673A48.2,48.2,0,0,1,32.63,82.26q-.206.211-.414.42h0Z" transform="translate(0.001)" fill="#0e1111" stroke="#deeaff" stroke-linejoin="round" stroke-width="5"/>
        <line id="Linie_4" data-name="Linie 4" y2="23.537" transform="translate(0 59.448)" fill="none" stroke="#deeaff" stroke-linecap="round" stroke-width="5"/>
      </g>
      <line id="Linie_5" data-name="Linie 5" y1="16.104" x2="10.983" transform="translate(6.712 59.448)" fill="none" stroke="#deeaff" stroke-linecap="round" stroke-width="5"/>
      <line id="Linie_6" data-name="Linie 6" x1="12.203" transform="translate(6.712 52.015)" fill="none" stroke="#deeaff" stroke-linecap="round" stroke-width="5"/>
    </g>
  </g>
</svg>
